<svg id="Component_5_1" data-name="Component 5 – 1" xmlns="http://www.w3.org/2000/svg" xmlns:xlink="http://www.w3.org/1999/xlink" width="1303.696" height="93.737" viewBox="0 0 1303.696 93.737">
  <defs>
    <linearGradient id="linear-gradient" x1="0.031" y1="0.5" x2="0.732" y2="0.813" gradientUnits="objectBoundingBox">
      <stop offset="0" stop-color="#0d99ff"/>
      <stop offset="1" stop-color="#99faf4"/>
    </linearGradient>
  </defs>
  <path id="Path_503" data-name="Path 503" d="M62.487,29.1,60.169,12.879H24.116L15.747,29.1H-3.7L25.256-25.819l18.561-35.21H65.834L81.672,29.1ZM32.743-3.731H57.723L54.028-29.419l-1.713-11.91L43.141-23.706Zm105.841-57.3q13.649,0,21.117,8.949t5.408,22.211A32.958,32.958,0,0,1,153.391-8.688Q143.606-.512,128.412-.512H113.347L108.2,29.1H90.428l15.837-90.132Zm8.884,29.872q1.159-6.052-1.8-9.657t-9.786-3.605H121.073l-4.764,27.3h13.906q7.082,0,11.588-3.863A16.979,16.979,0,0,0,147.468-31.157Zm67.084-29.872q13.649,0,21.117,8.949t5.408,22.211A32.958,32.958,0,0,1,229.36-8.688Q219.574-.512,204.38-.512H189.315L184.165,29.1H166.4l15.837-90.132Zm8.884,29.872q1.159-6.052-1.8-9.657t-9.786-3.605H197.041l-4.764,27.3h13.906q7.082,0,11.588-3.863A16.979,16.979,0,0,0,223.437-31.157Zm39.658,43.263h34.379l-2.961,17H242.365l2.961-17L258.2-61.029h17.769Zm57.3-73.136h17.769L322.325,29.1H304.556Zm62.191,91.935q-13.52,0-23.434-6.567a35.924,35.924,0,0,1-14.1-17.576,45.323,45.323,0,0,1-2-24.014A52.715,52.715,0,0,1,361.4-49.956a52.341,52.341,0,0,1,34.958-12.876q12.876,0,22.211,5.665a34.446,34.446,0,0,1,13.842,15.709l-16.224,8.5q-6.052-12.618-21.5-12.618a32.921,32.921,0,0,0-22.34,8.241A35.027,35.027,0,0,0,360.7-15.963q-2.318,13,4.12,21.245t18.928,8.241q16.739,0,26.138-13.134l14.55,9.4A52.851,52.851,0,0,1,406.083,25.24,50.631,50.631,0,0,1,382.584,30.905Zm107-1.8-2.318-16.224H451.213L442.844,29.1H423.4l47.512-90.132h22.018L508.769,29.1ZM459.84-3.731s20.087,9.4,24.979,0-5.408-37.6-5.408-37.6Zm126.571-57.3-2.961,17H559.114L546.238,29.1H528.469l12.876-73.136H517.139l2.961-17Zm9.914,0h17.769L598.257,29.1H580.489Zm61.547,91.935q-19.572,0-31.031-14.228t-7.854-33.928A53.1,53.1,0,0,1,637.465-50.02q15.129-12.812,35.86-12.812,19.314,0,30.838,14.292t8.048,33.993a53.524,53.524,0,0,1-18.541,32.705Q678.6,30.905,657.873,30.905Zm2.06-17.383A34.04,34.04,0,0,0,682.4,5.282,34.7,34.7,0,0,0,694.57-15.835q2.189-12.876-4.635-21.31t-19.314-8.434a32.748,32.748,0,0,0-22.082,8.305,35.552,35.552,0,0,0-11.91,21.31Q634.31-3.087,640.941,5.218T659.933,13.523ZM717.1,29.1,732.94-61.029h13.391L775.3-4.761l9.786-56.268h17.769L787.02,29.1H773.629L744.786-27.165,734.872,29.1Zm184.513-52.92-2.833,15.58H877.667l-3.734,21.245h-15.58l3.734-21.245H840.841l2.833-15.58h21.117l3.734-21.117H884.1l-3.734,21.117Zm135.069,4.507-1.159,6.953q-3.348,19.7-17.511,31.482T983.894,30.905q-20.859,0-32.319-14.1T943.592-17.38A53.332,53.332,0,0,1,962-49.956a52.268,52.268,0,0,1,35.023-12.876q13.391,0,22.984,5.73a37.093,37.093,0,0,1,14.614,16.159l-16.224,8.5q-6.824-13.134-23.048-13.134A33.246,33.246,0,0,0,972.885-37.4a34.75,34.75,0,0,0-11.653,21.31q-2.318,13.134,4.313,21.374t20.022,8.241q22.147,0,29.615-17.125h-26.4l2.7-15.709ZM1096.173,29.1l-2.318-16.224H1057.8l-8.37,16.224H1029.99L1077.5-61.029h22.018L1115.358,29.1ZM1066.429-3.731h24.979L1086-41.329Zm161.723-57.3L1212.314,29.1h-17.64l10.3-58.586-13.718,17.334-19.5,24.642h-2.06L1152.312-30l-10.43,59.1h-17.769l15.838-90.132h18.155l17,43.135,33.478-43.135Zm68.887,17H1259.7l-3.477,19.314h34.25l-3.09,16.61h-33.993l-3.605,20.215h37.984l-2.961,17h-55.753l15.837-90.132H1300Z" transform="translate(3.696 62.832)" fill="url(#linear-gradient)"/>
</svg>
