<svg xmlns="http://www.w3.org/2000/svg" xmlns:xlink="http://www.w3.org/1999/xlink" width="374.486" height="214.24" viewBox="0 0 374.486 214.24">
  <defs>
    <linearGradient id="linear-gradient" y1="0.641" x2="0.986" y2="0.456" gradientUnits="objectBoundingBox">
      <stop offset="0" stop-color="#0d99ff"/>
      <stop offset="1" stop-color="#99faf4"/>
    </linearGradient>
    <filter id="Path_493" x="0" y="0" width="374.486" height="214.24" filterUnits="userSpaceOnUse">
      <feOffset input="SourceAlpha"/>
      <feGaussianBlur stdDeviation="30" result="blur"/>
      <feFlood flood-color="#f52674" flood-opacity="0.431"/>
      <feComposite operator="in" in2="blur"/>
      <feComposite in="SourceGraphic"/>
    </filter>
  </defs>
  <g transform="matrix(1, 0, 0, 1, 0, 0)" filter="url(#Path_493)">
    <path id="Path_493-2" data-name="Path 493" d="M1.6,8.322H23.08c5.529,0,10.527-4.307,10.527-9.57a9.506,9.506,0,0,0-4.891-7.975,8.965,8.965,0,0,0,2.977-6.486c0-5.264-5.051-9.57-10.58-9.57H1.6ZM24.515-15.285A3.608,3.608,0,0,1,20.9-11.722H11.33v6.486H22.814a3.62,3.62,0,0,1,3.669,3.562,3.62,3.62,0,0,1-3.669,3.562H8.778V-18.847H20.9A3.608,3.608,0,0,1,24.515-15.285ZM36.425,8.322H43.6V-17.783H36.425Zm0-28.444H43.6V-25.28H36.425Zm10.687,17.6c0,7.231,5.476,10.846,12.654,10.846h7.869V1.888H59.765c-3.615,0-5.476-.744-5.476-4.413V-11.35H67.634v-6.433H54.289v-7.5H47.111Zm34.718-5.37c-1.542-.851-4.679-2.339-4.679-3.084,0-.372.425-.372.957-.372H89.592v-6.433H78.108c-5.636,0-8.188,3.775-8.188,7.337,0,4.413,4.626,6.646,8.56,8.879,1.542.851,4.732,2.286,4.732,3.031,0,.372-.425.425-.957.425H69.92V8.322H82.255c5.583,0,8.188-3.828,8.188-7.337C90.443-3.481,85.817-5.714,81.829-7.894ZM93.154-25.28V-3.641a12.838,12.838,0,0,0,13.079,12.6,13.411,13.411,0,0,0,9.517-3.934,13.506,13.506,0,0,0,9.517,3.934,12.838,12.838,0,0,0,13.079-12.6V-25.28h-7.178V-3.641a5.823,5.823,0,0,1-5.9,6.167,5.823,5.823,0,0,1-5.9-6.167V-25.28h-7.178V-3.641a5.866,5.866,0,0,1-5.955,6.167,5.854,5.854,0,0,1-5.9-6.167V-25.28Zm48.914,33.6h7.178V-17.783h-7.178Zm0-28.444h7.178V-25.28h-7.178Zm10.687,17.6c0,7.231,5.476,10.846,12.654,10.846h7.869V1.888h-7.869c-3.615,0-5.476-.744-5.476-4.413V-11.35h13.345v-6.433H159.932v-7.5h-7.178Zm34.718-5.37c-1.542-.851-4.679-2.339-4.679-3.084,0-.372.425-.372.957-.372h11.484v-6.433H183.751c-5.636,0-8.188,3.775-8.188,7.337,0,4.413,4.626,6.646,8.56,8.879,1.542.851,4.732,2.286,4.732,3.031,0,.372-.425.425-.957.425H175.563V8.322H187.9c5.583,0,8.188-3.828,8.188-7.337C196.086-3.481,191.46-5.714,187.473-7.894Z" transform="translate(88.4 115.28)" fill="url(#linear-gradient)"/>
  </g>
</svg>
