<svg xmlns="http://www.w3.org/2000/svg" xmlns:xlink="http://www.w3.org/1999/xlink" width="297" height="139" viewBox="0 0 297 139"><defs><filter id="a" x="30" y="11" width="237" height="89" filterUnits="userSpaceOnUse"><feOffset input="SourceAlpha"/><feGaussianBlur stdDeviation="10" result="b"/><feFlood flood-opacity="0.769"/><feComposite operator="in" in2="b"/><feComposite in="SourceGraphic"/></filter><filter id="c" x="0" y="50" width="176" height="89" filterUnits="userSpaceOnUse"><feOffset input="SourceAlpha"/><feGaussianBlur stdDeviation="10" result="d"/><feFlood flood-opacity="0.78"/><feComposite operator="in" in2="d"/><feComposite in="SourceGraphic"/></filter><filter id="e" x="121" y="50" width="176" height="89" filterUnits="userSpaceOnUse"><feOffset input="SourceAlpha"/><feGaussianBlur stdDeviation="10" result="f"/><feFlood flood-opacity="0.78"/><feComposite operator="in" in2="f"/><feComposite in="SourceGraphic"/></filter></defs><g transform="translate(-1078 -520)"><rect width="248" height="126" rx="10" transform="translate(1102 520)" fill="#0d99ff"/><text transform="translate(1164 548)" fill="#fff" font-size="12" font-family="SegoeUI, Segoe UI"><tspan x="0" y="0">Wednesday, August 18</tspan></text><g transform="matrix(1, 0, 0, 1, 1078, 520)" filter="url(#a)"><g transform="translate(60 41)" fill="#fff" stroke="#0d99ff" stroke-width="2"><rect width="177" height="29" rx="5" stroke="none"/><rect x="1" y="1" width="175" height="27" rx="4" fill="none"/></g></g><g transform="matrix(1, 0, 0, 1, 1078, 520)" filter="url(#c)"><g transform="translate(30 80)" fill="#010b11" stroke="#fff" stroke-width="1"><rect width="116" height="29" rx="5" stroke="none"/><rect x="0.5" y="0.5" width="115" height="28" rx="4.5" fill="none"/></g></g><g transform="matrix(1, 0, 0, 1, 1078, 520)" filter="url(#e)"><rect width="116" height="29" rx="5" transform="translate(151 80)" fill="#0b88e3"/></g><text transform="translate(1201 580)" fill="#0d99ff" font-size="12" font-family="SegoeUI, Segoe UI"><tspan x="0" y="0">10:00 am</tspan></text><text transform="translate(1141 619)" fill="#fff" font-size="12" font-family="SegoeUI, Segoe UI"><tspan x="0" y="0">11:00 am</tspan></text><text transform="translate(1262 619)" fill="#fff" font-size="12" font-family="SegoeUI, Segoe UI"><tspan x="0" y="0">conform</tspan></text></g></svg>