<svg xmlns="http://www.w3.org/2000/svg" width="1276.37" height="483.339" viewBox="0 0 1276.37 483.339"><g transform="translate(-56.131 -5006.504)"><g transform="translate(316.097 5006.504)"><path d="M0,0H764.884V483.331H0Z"/><path d="M16.185,8.091A8.093,8.093,0,1,1,8.1,0a8.1,8.1,0,0,1,8.09,8.091ZM15.6,8.083A7.511,7.511,0,1,0,8.1,15.593,7.509,7.509,0,0,0,15.6,8.083Z" transform="translate(670.483 15.549)" fill="#e9eef1"/><path d="M0,8.091a8.094,8.094,0,1,1,8.094,8.091A8.1,8.1,0,0,1,0,8.091ZM.58,8.1A7.514,7.514,0,1,0,8.094.588,7.515,7.515,0,0,0,.58,8.1Z" transform="translate(76.034 15.281)" fill="#e9eef1"/><path d="M764.884,333.472c0,.99-.713,94.177-.741,98.144v.313l-5.978,9.632-.141-.083v18.109a23.78,23.78,0,0,1-23.754,23.751H30.314A23.783,23.783,0,0,1,6.553,459.588V433.18L0,423.817V325.33c0-.633,0-1.683,6.553-4.295V23.751A23.783,23.783,0,0,1,30.314,0H734.27a23.774,23.774,0,0,1,23.754,23.751v305.3C764.874,331.753,764.884,332.825,764.884,333.472Zm-21.773,124.9a11.886,11.886,0,1,0-11.882,11.88A11.894,11.894,0,0,0,743.11,458.375Zm.845-6.088a17.131,17.131,0,0,0-16.339-12.817h-.169a16.279,16.279,0,0,0-11.609,4.779,16.746,16.746,0,0,0,.235,23.662,17.067,17.067,0,0,0,8.4,4.6l3.322.059,1.877-.178a14.11,14.11,0,1,1,14.284-20.1Zm-8.512,19.568.272-.022.3-.193c-.131.044-.272.1-.413.148C735.555,471.809,735.5,471.832,735.443,471.854Zm6.213-4,.638-.424.122-.484C742.172,467.262,741.919,467.567,741.656,467.857Zm3.06-14.827.544-74.252-26.963-.424c-.338,6.289-.666,12.34-.985,18.027a7.334,7.334,0,1,1-.329,5.761c-1.211,20.692-2.328,35.466-3.116,37.416-.976,2.4-1.7,4.63-2.393,6.788-1.83,5.656-3.407,10.539-8.634,14.961-5.406,4.577-15.382,8.165-25.352,8.165-6.515,0-13.03-1.534-18.258-5.329-5.279-3.826-13.85-12.207-21.318-19.866l5.234,26.818,79.1,1.392a17.647,17.647,0,0,1-6.6-4.153,17.152,17.152,0,1,1,29.066-15.3ZM532.212,481.1H634.374l-12.041-52.3c-4.117.119-19.524.581-36.851,1.087h.209l-.447,1.444c-1.177,3.789-2.927,10.04-2.927,11.738v1.116l-42.443.068V431.208c-6.1.171-10.671.3-12.689.343-.283,1.392-6.716,32.794-7.439,36.21l-2.19-.462c.7-3.274,6.679-32.489,7.379-35.913-2.718-.521-9.821-2.113-19.516-4.339v19.515a20.782,20.782,0,0,1-41.565,0V425.476a20.586,20.586,0,0,1,1.452-7.614l.543.216a19.948,19.948,0,0,0-1.415,7.4v21.086a20.194,20.194,0,0,0,40.389,0v-19.65c-8.72-2-19.45-4.5-30.939-7.19l.365.237c-5.8,8.784-5.8,23.067,0,31.842,2.762,4.2,6.448,6.506,10.372,6.506s7.61-2.315,10.38-6.506c4.4-6.669,5.578-16.91,2.934-25.5l.558-.171c2.7,8.746,1.482,19.189-3.008,25.991-2.882,4.362-6.739,6.766-10.864,6.766s-7.982-2.4-10.864-6.766c-5.905-8.939-5.913-23.475-.03-32.437-7.059-1.653-14.4-3.38-21.735-5.105V468.4h-2.235V444.762h-7.3V434.006l-127.636.648v9.058h-7.3v21.093H305.3V414.088h2.234V417.9h7.289v14.522l127.636-.648V418.949h7.3v-4.682h.857c-18.944-4.465-37.671-8.894-51.119-12.087a18.748,18.748,0,0,1-37.447-.774L294.3,416.046a16.846,16.846,0,0,1,1.533,7.063v22.768a20.8,20.8,0,0,1-20.782,20.774c-11.073,0-20.782-9.013-20.782-19.284V424.694l-21.155,4.571,9.591,36.576-2.159.565-9.681-36.9.089-.022-9.806-.238v13.881l-42.443-.067V441.94c0-1.905-2.115-9.669-2.934-12.5l-.38-1.309-36.129-.878c-5.078,24.361-10.067,47.9-11.631,53.851H227.46l3.857-6.394h30.791V481.1h27.216l-.253-.149,4.051-6.706h28.557V446.481h2.234v3.431l109.087.35v.587l-109.087-.364v30.606H435.6V448.259h2.234v25.746h28.548l4.051,6.706-.633.388h27.6v-6.625H528.2Zm-5.279-4.391H499.642V481.1h29.941Zm-61.8-.462h-27.29V481.1h30.224Zm-143.451.231H294.386l-2.792,4.622h30.083Zm-61.8.462H232.583l-2.51,4.16h29.8ZM32.667,471a11.879,11.879,0,1,0-11.884-11.88A11.9,11.9,0,0,0,32.667,471Zm-.774,2.2.089.023-.038-.023h-.052Zm7.565.068a17.01,17.01,0,0,0,8.37-4.608A16.753,16.753,0,0,0,48.066,445a16.3,16.3,0,0,0-11.609-4.779h-.171a17.146,17.146,0,0,0-16.359,12.861,14.109,14.109,0,1,1,13.246,20.126l.187.1c.633,0,2.822-.023,6.1-.044Zm2.144-.015c20.514-.157,71.707-.521,76.19-.365.328-1.608,2.219-10.7,4.751-22.842-.313.328-.626.655-.946.975-10.149,10.249-26.9,21.108-49.071,14.67-18-5.232-22.257-22.88-22.293-23.058-.068-.164-6.963-19.791-1.847-47.823.931-5.113,2.256-10.949,3.9-17.349L17.8,378v74.848l.923,4.235c.045-.29.083-.58.142-.863a17.69,17.69,0,0,1,17.424-16.583h.178a16.843,16.843,0,0,1,12.019,4.95,17.334,17.334,0,0,1-.238,24.488,17.7,17.7,0,0,1-6.642,4.183Zm-5-463.719a14.19,14.19,0,0,1,6.463,6.312,14.387,14.387,0,0,1,1.63,1.384,14.547,14.547,0,0,1,3.679,14.321L76.4,46.72l60.694-24.093c.067-2.114.119-4.272.164-6.371h-30.91L101.2,9.535ZM715.884,32.482l4.467-2.419A13.956,13.956,0,0,1,719.7,18.7c-.084.074-.169.141-.244.216a13.836,13.836,0,0,0-4.083,9.862A14.011,14.011,0,0,0,715.884,32.482Zm8.193-16.643c-.066.03-.131.067-.206.1a12.479,12.479,0,1,0,.169-.186ZM716.663,34.6a13.294,13.294,0,0,0,1.061,1.913l5.312,4.7a13.929,13.929,0,0,0,19.1-6.907,14.059,14.059,0,0,1-20.6-2.337Zm.629,2.322-.422-.38-.291,122.923a178.226,178.226,0,0,1,7.592,34.23l.713-150.082L722.717,41.7a14.247,14.247,0,0,1-3.66-2.657,15.152,15.152,0,0,1-1.764-2.121ZM724.134,199a176.777,176.777,0,0,0-7.564-37.655l-.009,5.039a178.034,178.034,0,0,1-.235,98.77l-.009,5.06a177.917,177.917,0,0,0,7.658-36.731Zm.46,26.364c.178-3.327.282-6.662.282-10.019q0-4.153-.2-8.284Zm-.648,13.39a178.488,178.488,0,0,1-7.639,33.39l-.188,78.13h-.291l-51.051-.261c-1.735,1.556-3.5,3.052-5.287,4.533l59.407.32c2.609-53.367,4.993-112.428,5.04-113.492Zm-4.458,116.1,3.9.023.46-97.43C722.961,278.915,721.281,318.222,719.488,354.856ZM566.673,429.831c23.553-.685,49.673-1.459,55.519-1.63l-10.381-45.083a183.72,183.72,0,0,1-24.721,8.1,17.926,17.926,0,1,1-34.282,7.339,18.647,18.647,0,0,1,.119-2.062c-3.887.238-7.8.372-11.721.372a185.126,185.126,0,0,1-95.87-26.438l-293.642-3.513c-1.5,7.339-6.933,33.91-12.309,59.738l92.572,2.255L362.036,400.8a18.75,18.75,0,0,1,37.5.112c0,.216-.007.439-.015.655,27.373,6.49,76.987,18.228,105.3,24.74v-.089h.588v.231c11.966,2.755,19.993,4.54,20.671,4.54.663,0,5.972-.142,13.775-.365V429.8ZM370.5,399.574a10.6,10.6,0,0,0-.06,1.1,10.268,10.268,0,0,0,20.536,0c0-.178-.022-.358-.029-.536-6.009-1.429-9.978-2.374-10.991-2.613Zm9.456-2.634.067.015c.238.052,4.281,1.019,10.879,2.582a10.261,10.261,0,0,0-20.313-.58Zm-10.112,3.744c0-.328.023-.655.053-.975l-5.637,1.221a16.516,16.516,0,0,0,33.017.722c-2.07-.492-3.991-.945-5.748-1.363.008.134.022.261.022.4a10.853,10.853,0,0,1-21.706,0Zm27.455.364v-.126a16.514,16.514,0,0,0-33.017-.6l5.7-1.235a10.845,10.845,0,0,1,21.527.58C393.272,400.1,395.208,400.549,397.3,401.048ZM254.862,424.59v22.769c0,9.958,9.434,18.7,20.194,18.7a20.212,20.212,0,0,0,20.195-20.186V423.1a16.379,16.379,0,0,0-1.534-6.936l-7.707,1.667c5.816,9.208,5.793,24.049-.089,33.189-2.881,4.473-6.738,6.944-10.864,6.944s-7.982-2.464-10.864-6.944c-4.2-6.536-5.629-18.161-3.32-27.041l.566.149c-2.271,8.745-.872,20.17,3.246,26.579,2.77,4.3,6.448,6.677,10.372,6.677s7.6-2.367,10.372-6.677c5.8-9.021,5.8-23.7,0-32.719l.068-.045L254.72,424.59Zm-194.011-61.9-3.917.045c-1.437,4.942-2.74,9.668-3.894,14.119l3.723-.059c.439-1.757.9-3.543,1.407-5.389C58.751,369.289,59.667,366.333,60.851,362.694Zm-2.115,8.873c-.491,1.786-.938,3.52-1.363,5.225l25.273-.394c.074.008,4.825.409,7.312-2.851a7.087,7.087,0,0,0,.663-7.22c-1.236-2.508-3.924-3.884-7.558-3.884l-21.594.245C60.255,366.4,59.324,369.415,58.736,371.566Zm-40.946,5.842,34.647-.543c1.147-4.45,2.457-9.177,3.887-14.119l-38.534.439Zm43.247-15.3c.975-2.985,2.129-6.4,3.418-10.168l-4.289-.023q-1.609,5.248-3.06,10.234Zm3.619-10.748q.738-2.144,1.534-4.436l-4.467-.023c-.469,1.488-.923,2.969-1.378,4.436ZM18.615,22.247A11.924,11.924,0,1,0,21.7,14.291l-2.9,5.962a11.691,11.691,0,0,0-.179,1.995ZM44.3,17.655c-.216-.216-.447-.409-.678-.61a13.989,13.989,0,0,1-.558,11.634l4.788,2.59A13.946,13.946,0,0,0,44.3,17.655ZM21.721,33.285a13.925,13.925,0,0,0,25.34.1l-5.183-2.806a14.062,14.062,0,0,1-20.156,2.709Zm24.356,2.888,1.981-2.255-.477-.261a14.2,14.2,0,0,1-1.5,2.516Zm-7.439,6.476L37.052,351.217l22.688.119c.454-1.467.908-2.948,1.378-4.436l-13.484-.067.744-312.394L45.3,37.93Zm672.572,71.342-.591-.663v.409l-16.7-.008a181,181,0,0,1,17.184,31.232ZM553.381,398.569a17.343,17.343,0,0,0,34.685,0,17.162,17.162,0,0,0-1.564-7.19,186.426,186.426,0,0,1-32.987,5.091A19.457,19.457,0,0,0,553.381,398.569Zm32.868-7.726a18.484,18.484,0,0,0-.924-1.615,184.248,184.248,0,0,1-31.319,4.764,15.969,15.969,0,0,0-.409,1.89A186.941,186.941,0,0,0,586.249,390.843Zm-1.274-2.129a17.149,17.149,0,0,0-2.48-2.858,180.366,180.366,0,0,1-26.732,3.967,17.3,17.3,0,0,0-1.586,3.573A185.049,185.049,0,0,0,584.976,388.715ZM389.288,113.6a178.968,178.968,0,0,0,22.033,229.7c1.639,1.608,3.314,3.178,5,4.726l3.314.015c-2.2-1.965-4.364-4-6.479-6.082A177.108,177.108,0,0,1,392.1,113.6Zm133.876.06h-4.177a104.708,104.708,0,0,0-57.18,35.7,100.46,100.46,0,0,0-22.8,64.04c0,56.508,46.673,102.484,104.031,102.484S647.063,269.9,647.063,213.393a102.032,102.032,0,0,0-79.139-99.715h-4.393a103.634,103.634,0,0,1,58.34,33.8,100.81,100.81,0,0,1,24.618,65.909c0,56.062-46.294,101.672-103.19,101.672s-103.19-45.611-103.19-101.672a100.81,100.81,0,0,1,24.617-65.909,103.625,103.625,0,0,1,58.438-33.821Zm2.792.082a103.085,103.085,0,0,0-60.783,34.119A100.213,100.213,0,0,0,440.7,213.386c0,55.742,46.024,101.085,102.6,101.085s102.6-45.343,102.6-101.085a100.209,100.209,0,0,0-24.476-65.529,103.085,103.085,0,0,0-60.783-34.119l.015-.067-34.714-.015Zm-9.412-.082-77.292-.038.045.045A142.423,142.423,0,0,0,394.173,218c0,57.312,34.007,106.95,83.189,130.351l125.827.669c49.964-23.1,84.652-73.143,84.652-131.02a142.425,142.425,0,0,0-45.083-104.285l-72.393-.037a102.589,102.589,0,0,1,77.277,99.707c0,56.835-46.925,103.072-104.612,103.072S438.419,270.221,438.419,213.386a101.015,101.015,0,0,1,22.934-64.405A105.318,105.318,0,0,1,516.544,113.656Zm139.744.067a150.773,150.773,0,0,1,41.736,104.2c0,55.719-30.471,104.553-75.855,131.2l8.875.045a161.63,161.63,0,0,0,24.365-19.746,156.289,156.289,0,0,0,7.319-215.7Zm30.287.023a172.551,172.551,0,0,1,24.476,47.4l.038-9.207a177.111,177.111,0,0,0-20.441-38.2Zm-13.168-.015A164.464,164.464,0,0,1,659.4,333.249a171.251,171.251,0,0,1-18.749,15.973l15.056.082q6.076-5.013,11.758-10.592a172.946,172.946,0,0,0,43.23-69.436L711.051,163a172.553,172.553,0,0,0-25.19-49.274Zm42.534,68.156a168.265,168.265,0,0,0-4.308-17.052l-.338,102.61a170.36,170.36,0,0,0,4.477-17.342ZM716.372,247a173.933,173.933,0,0,0,.141-62.075ZM582.667,385.225a176.955,176.955,0,0,0,27.6-8.716l-.946-4.1-12.233-.149a172.559,172.559,0,0,1-117.919-1.414l-17.313-.208A178.055,178.055,0,0,0,542.48,389.72q6.512,0,12.941-.462a17.888,17.888,0,0,1,27.246-4.034Zm-11.943-3.99a17.328,17.328,0,0,0-14.58,7.972,179.379,179.379,0,0,0,25.816-3.826A17.244,17.244,0,0,0,570.723,381.235ZM554.878,369.52a155.091,155.091,0,0,0,53.643-13.911,28.039,28.039,0,0,0-7.96-.543c-1.579.1-5.517.172-11.423.216a149.548,149.548,0,0,1-96.675-.142q-7.795-.032-15.92-.074a154.856,154.856,0,0,0,51.074,14.127Zm30.135-14.8-93.4-.5c.313.112.633.216.946.328C532.822,354.745,566.264,354.826,585.013,354.722Zm-90.718.424a148.98,148.98,0,0,0,92.959.149C569.249,355.415,535.428,355.341,494.3,355.146Zm-4.437-.93-15.221-.082c.231.112.454.223.685.335q7.864.032,15.437.074C490.453,354.44,490.155,354.328,489.858,354.216Zm119.466,1.02c.261-.127.529-.246.8-.373l-2.5-.015C608.207,354.953,608.773,355.087,609.324,355.236Zm1.974-.953c2.911-1.413,5.778-2.909,8.578-4.5l-16.747-.089q-5.327,2.445-10.872,4.488Zm-9.539-4.6-122.869-.633q5.417,2.513,11.072,4.585l100.591.536Q596.272,352.151,601.759,349.683Zm-124.285-.633-12.487-.067q4.143,2.4,8.444,4.562l14.841.075Q482.765,351.543,477.474,349.051Zm-13.656-.074-11.207-.06q3.574,2.379,7.268,4.556l12.242.067Q467.9,351.385,463.818,348.977Zm-2.9,5.084.581.334,12.487.068c-.231-.112-.462-.223-.685-.335Zm1.6.923A159.332,159.332,0,0,0,494.9,368.8l27.172.328a155.361,155.361,0,0,1-46.89-14.067Q468.926,355.023,462.515,354.983Zm41.006,16.152a164.808,164.808,0,0,0,73.159.878Zm81.848-1.251a159.761,159.761,0,0,0,29.77-11.492,18.9,18.9,0,0,0-5.718-2.56,155.333,155.333,0,0,1-49.012,13.755Zm30.3-11.775q3.006-1.53,5.95-3.193l-10.187-.053c-.418.2-.827.409-1.244.61A19.938,19.938,0,0,1,615.669,358.109Zm6.963-3.766q3.753-2.155,7.386-4.51l-8.987-.045q-4.133,2.379-8.415,4.5ZM439.953,348.85q3.217,2.355,6.53,4.548l12.257.067q-3.653-2.176-7.179-4.556Zm7.431,5.143c.172.119.342.223.514.335l12.405.067-.581-.334Zm1.43.916a166.868,166.868,0,0,0,26.2,13.651l17.841.216a160.084,160.084,0,0,1-31.527-13.792Q455.142,354.949,448.814,354.909Zm32.116,15.95a171.909,171.909,0,0,0,114.411,1.37l-16.143-.194A165.095,165.095,0,0,1,501,371.1ZM601.3,370.07a167.127,167.127,0,0,0,17.767-8.047,17.468,17.468,0,0,0-3.38-3.259,159.994,159.994,0,0,1-28.281,11.142Zm18.274-8.314q5.931-3.149,11.623-6.781l-8.415-.045q-3.249,1.865-6.582,3.573A18.759,18.759,0,0,1,619.578,361.756Zm12.532-7.362q3.362-2.176,6.627-4.518l-7.647-.037q-3.6,2.355-7.3,4.51Zm-203.483-5.611q2.8,2.333,5.682,4.547l11.118.06q-3.284-2.189-6.464-4.548Zm6.471,5.136c.142.112.291.216.432.328l11.274.067c-.172-.1-.336-.216-.507-.328Zm1.221.923a176.363,176.363,0,0,0,21.185,13.51l15.973.193a167.483,167.483,0,0,1-25.75-13.636Zm176.044,20.781q5.395-2.289,10.632-4.935a20.313,20.313,0,0,0-3.559-8.2,167.275,167.275,0,0,1-16.583,7.6l8.258.1Zm11.184-5.218a176.918,176.918,0,0,0,24.788-15.34l-16.062-.089q-6.02,3.885-12.331,7.242A19.44,19.44,0,0,1,623.547,370.4Zm25.562-15.92q2.938-2.2,5.8-4.525l-15.176-.075q-3.238,2.334-6.56,4.518Zm49.6-4.957,11.76-11.321.169-51.305a181.309,181.309,0,0,1-39.145,56.806c-1.965,1.935-3.969,3.81-6,5.649Zm11.938-64.115.009-3.922A178.224,178.224,0,0,1,670.2,341.95q-3.887,3.829-7.968,7.383l2.405.015q3.284-2.946,6.449-6.058A180.519,180.519,0,0,0,710.647,285.412Zm.019-5.471.028-8.775a173.658,173.658,0,0,1-42.82,67.97q-5.438,5.348-11.258,10.175l4.728.022q4.323-3.75,8.437-7.792A177.9,177.9,0,0,0,710.666,279.942ZM663.5,113.73A156.855,156.855,0,0,1,655.8,329.84a162.348,162.348,0,0,1-23.739,19.337l7.588.038a170.456,170.456,0,0,0,19.323-16.39,163.886,163.886,0,0,0,13.671-219.1Zm-19.889-.023a142.964,142.964,0,0,1,44.817,104.285c0,57.669-34.295,107.6-83.849,131.028l16.441.09c45.683-26.424,76.418-75.332,76.418-131.192a150.218,150.218,0,0,0-41.949-104.2Zm-205.1-.089h-7.654A150.193,150.193,0,0,0,388.8,217.926c0,55.265,30.1,103.734,74.983,130.35l12.242.068c-48.787-23.707-82.43-73.225-82.43-130.344A142.981,142.981,0,0,1,438.508,113.619Zm-8.444,0-8.735-.008.038.03a156.289,156.289,0,0,0,7.252,215.783,161.815,161.815,0,0,0,22.949,18.786l11.058.059c-44.589-26.824-74.411-75.212-74.411-130.343A150.7,150.7,0,0,1,430.065,113.619Zm-9.442-.015-13.06-.008a163.889,163.889,0,0,0,13.567,219.229,170.225,170.225,0,0,0,17.879,15.318l11.512.059a162.282,162.282,0,0,1-22.309-18.369A156.847,156.847,0,0,1,420.622,113.6Zm-13.805,0h-7.684l.038.023a172.23,172.23,0,0,0,18.318,225.086q4.982,4.913,10.291,9.371l10.246.053a171.148,171.148,0,0,1-17.305-14.894,164.451,164.451,0,0,1-13.9-219.638Zm-8.355-.015h-5.711l.037.023a176.525,176.525,0,0,0,20.783,227.922q3.405,3.36,6.962,6.506l6.322.037q-5.026-4.264-9.776-8.947a172.82,172.82,0,0,1-18.616-225.54ZM417.1,348.738q2.569,2.323,5.212,4.54l3.477.015q-2.7-2.212-5.338-4.54Zm9.606,4.548,6.628.037c-1.906-1.466-3.776-2.984-5.629-4.54l-6.359-.03C423.109,350.3,424.9,351.819,426.706,353.286Zm.745.6c.134.1.267.216.4.32,2.241.008,4.468.023,6.694.038-.142-.112-.29-.216-.432-.328Zm1.139.908a181.994,181.994,0,0,0,19.5,13.442l8.146.1a177,177,0,0,1-20.909-13.5C433.1,354.819,430.854,354.8,428.59,354.8Zm23.44,15.719a182.247,182.247,0,0,0,89.645,23.3q5.965,0,11.877-.388a18.2,18.2,0,0,1,1.512-3.565q-6.255.436-12.592.439a178.572,178.572,0,0,1-81.931-19.68Zm133.563,18.05a181.221,181.221,0,0,0,25.548-8.284l-.737-3.2a177.415,177.415,0,0,1-27.223,8.612A17.754,17.754,0,0,1,585.593,388.567Zm27.641-9.178q5.316-2.255,10.492-4.838l-.625-3.208c0-.008-.008-.038-.008-.053q-5.217,2.635-10.6,4.906Zm11.035-5.1A181,181,0,0,0,654.375,355.1l-5.071-.03a176.806,176.806,0,0,1-25.66,15.943c.008.082.023.163.03.245Zm30.842-19.776q2.782-2.2,5.488-4.525l-4.773-.022q-2.837,2.321-5.748,4.525Zm44.368-4.912,16.067.082.178-75.83q-2.041,5.928-4.5,11.693l-.178,52.913-.084.089Zm16.246-77.55.009-4.89q-2,6.531-4.486,12.884l-.019,3.982Q713.693,278.123,715.725,272.052Zm.009-6.982.028-12.147a170.067,170.067,0,0,1-4.486,16.449l-.028,9.013Q713.768,271.833,715.734,265.07Zm.591-2.017a177.8,177.8,0,0,0,.225-94.549l-.028,13.323a174.957,174.957,0,0,1-.169,68.335Zm-.366-96.574q-1.9-6.587-4.3-13.011l-.028,9.453q2.534,7.95,4.308,16.129Zm.019-2.068.009-4.853q-1.943-5.918-4.3-11.693l-.019,3.96Q714.064,158.031,715.978,164.411Zm-4.871-17.975a179.919,179.919,0,0,0-17.9-32.705h-1.858a177.663,177.663,0,0,1,19.737,36.613Zm-.638-33.279-54.68-61.2L106.63,50.375l-52.936,62.47,609.22.291.045-.038c.015.008.022.023.037.038l30.485.014.028-.022c.009.008.009.015.019.022Zm-657.117.291.819,223.418,8,6.7c17.357-54.722,44.848-125.156,57.6-157.183A102.407,102.407,0,0,1,124.739,174c1.2-2.969,1.885-4.666,1.951-4.823l.424.172a104.176,104.176,0,0,1,91.581-54.1c57.269,0,103.86,45.909,103.86,102.335S275.964,319.911,218.7,319.911,114.836,274,114.836,217.576c0-.752.015-1.488.03-2.233C110.36,227.371,81.961,303.4,67.083,346.155l348.38,1.861c-1.534-1.414-3.053-2.844-4.542-4.31a179.556,179.556,0,0,1-22.331-230.118Zm66.971,73.121a100.073,100.073,0,0,0-4.907,31c0,56.106,46.323,101.755,103.272,101.755s103.279-45.642,103.279-101.747S275.637,115.83,218.688,115.83a103.525,103.525,0,0,0-93.42,58.4C124.084,177.168,122.4,181.358,120.323,186.569ZM62.66,343.959l2.606,2.189,1.2.008c16.069-46.221,48.051-131.564,48.452-132.636a100.685,100.685,0,0,1,3.106-21.161C104.478,226.545,79.02,292.32,62.66,343.959Zm-.2.6c-.186.587-.364,1.176-.551,1.757l2.666.014Zm2.815,6.8,356.116,1.905c-1.749-1.473-3.462-2.992-5.16-4.541l-349.421-1.8C66.279,348.456,65.765,349.929,65.273,351.366Zm172.8,1.511c51.923.409,120.682.915,184.406,1.3-.127-.112-.253-.216-.38-.32Zm185.33,1.294,3.5.023c-.134-.1-.268-.208-.4-.32l-3.477-.015C423.147,353.963,423.274,354.075,423.4,354.171Zm.707.588a183.762,183.762,0,0,0,18.645,13.412l4.192.053a181.207,181.207,0,0,1-19.3-13.435C426.475,354.782,425.291,354.775,424.107,354.76Zm22.376,15.69a184.608,184.608,0,0,0,94.724,25.843c3.954,0,7.885-.134,11.8-.38a17.787,17.787,0,0,1,.387-1.89c-3.886.245-7.789.379-11.713.379a182.746,182.746,0,0,1-90.844-23.9Zm165.188,12.11-.388-1.7a182.517,182.517,0,0,1-25.347,8.225c.321.521.626,1.057.894,1.608A184.468,184.468,0,0,0,611.671,382.559Zm2.084-.892q5.272-2.233,10.417-4.794l-.335-1.719q-5.159,2.579-10.477,4.823Zm10.961-5.061a183.909,183.909,0,0,0,33.166-21.488l-2.569-.015a181.733,181.733,0,0,1-30.932,19.776Zm33.866-22.069c1.794-1.473,3.574-2.984,5.317-4.533l-2.42-.015q-2.68,2.323-5.436,4.533ZM716.166,34.871l-28.99,15.7L652.736,36.9l.03.015-1.154.015c-1.4.015-141.463,1.585-279.754,2.992-81.224.826-145.946,1.436-192.381,1.816-27.573.223-48.914.365-63.435.424-5.942.022-10.439.037-13.835.037-4.185,0-6.7-.022-8.221-.06L76.257,49.176,48.967,34.4l-.745,311.843,13.076.068c.223-.715.447-1.437.678-2.159l-8.385-7.034v-.134l-.819-223.954.067-.083,53.517-63.154h.134L656.042,51.38l.089.1,55.661,62.3v.112l-.1,32.444c1.558,3.751,3,7.555,4.3,11.4l.291-122.476.075.06a2.643,2.643,0,0,1-.188-.439ZM638.737,31.35,110.659,35.526l-15.28,6.066c45.184.447,527.87-4.927,555.064-5.232l-2.785-1.474ZM637.3,30.77l-13.187-5.232V16.248H139.5c-.045,2.1-.112,4.473-.194,7.175l-.022.729-27.119,10.77ZM17.8,28.351V362.6l38.7-.439c.961-3.319,1.988-6.743,3.06-10.242l-23.1-.126V351.5L38.057,42.344l2.122-1.5A14.545,14.545,0,0,1,24.14,37.789a14.379,14.379,0,0,1-3.4-5.359A14.182,14.182,0,0,1,17.8,28.351ZM122.759,448.975c6.009-28.791,15.4-73.516,16.628-77.736,3.931-13.5,12.3-17.864,14.49-18.794l-88.811-.477c-1.288,3.751-2.442,7.167-3.417,10.153l21.392-.246c5.227,0,7.313,2.634,8.087,4.205a7.7,7.7,0,0,1-.715,7.83c-2.688,3.52-7.6,3.1-7.8,3.081l-25.4.4a188.242,188.242,0,0,0-5.548,35.175,96.392,96.392,0,0,0,.059,12.236A31.748,31.748,0,0,1,86.4,401.9a31.875,31.875,0,0,1,.052,63.75c-.64,0-1.281-.022-1.929-.059l.03-.454c-.73.045-1.467.082-2.212.082A31.776,31.776,0,0,1,51.3,426.474c-.328-2.8-1.854-20.059,5.309-49.087l-3.723.059c-1.66,6.446-2.994,12.318-3.931,17.462-5.093,27.866,1.757,47.36,1.824,47.553.052.208,4.229,17.536,21.9,22.664,21.884,6.357,38.445-4.384,48.482-14.507.551-.558,1.079-1.116,1.594-1.644ZM82.347,403.861a29.564,29.564,0,1,0,29.577,29.564A29.606,29.606,0,0,0,82.347,403.861Zm31.811,29.556A31.851,31.851,0,0,1,85.7,465.044a31.28,31.28,0,0,0,5.257-62.224,31.841,31.841,0,0,1,23.2,30.6Zm9.4,14.693a95.077,95.077,0,0,0,12.926-18.429c4.915-23.572,10.224-49.414,13.217-64.1l.187-.9.923.008,290.857,3.475a184.973,184.973,0,0,1-18.467-13.4c-122.848-.752-264.75-1.95-268.638-1.98-.714.253-10.312,3.885-14.6,18.593C138.745,375.534,129.55,419.306,123.555,448.111Zm54.774-17.856a106.29,106.29,0,0,1,2.517,10.561l38.072.06v-9.989Zm264.714,13.9h6.708v-10.2l-6.708.038Zm6.708-24.628h-6.708v12.236l6.708-.038ZM307.529,443.109h6.709v-8.47l-6.709.038Zm6.709-10.7V418.465h-6.709v13.978Zm227.846-.373v9.974l38.081-.059a90.507,90.507,0,0,1,2.486-9.839Zm82.7-2.471c2.1,2.27,6.769,7.294,12.189,12.891l-12.681-64.978q-5.127,2.557-10.4,4.778Zm12.926,13.658c5.339,5.5,11.318,11.44,16.277,15.847a35.092,35.092,0,1,1,26.065,8.388c-.741,0-1.473-.03-2.207-.083l.03.454c-.648.038-1.289.06-1.929.06a31.6,31.6,0,0,1-19.68-6.841c1.2,1.013,2.316,1.9,3.306,2.62,12.8,9.289,34.295,4.458,42.892-2.814,5.1-4.317,6.654-9.125,8.447-14.692.7-2.166,1.427-4.406,2.412-6.833.8-1.964,1.952-17.781,3.21-39.686v-.015a7.743,7.743,0,0,1,.047-.819c.366-6.393.741-13.286,1.117-20.5l-36.536-.573c-.169.023-5.079.439-7.767-3.081a7.7,7.7,0,0,1-.715-7.83c.782-1.571,2.867-4.205,8.088-4.205l37.719.432c.131-2.516.253-5.061.385-7.614l-60.078-.32a183.935,183.935,0,0,1-33.955,22.076Zm43.047-80.013c-3.633,0-6.322,1.385-7.558,3.885a7.124,7.124,0,0,0,.663,7.22c2.487,3.253,7.233,2.859,7.28,2.851l36.592.572c.244-4.592.488-9.3.723-14.1Zm-9.3,41.853a31.281,31.281,0,0,0,5.257,62.224,31.79,31.79,0,0,1-5.257-62.224Zm-20.969,30.592a29.578,29.578,0,1,0,29.574-29.564A29.605,29.605,0,0,0,650.487,435.652Zm73.393-30.919a5.1,5.1,0,1,0-5.106-5.1A5.1,5.1,0,0,0,723.88,404.732Zm21.389-26.572.1-14.216-26.316-.3c-.244,4.794-.488,9.505-.723,14.1Zm.113-14.8,2.468-339.65-.929-1.794a14.892,14.892,0,0,1,.113,1.719,14.04,14.04,0,0,1-3.914,9.728,14.51,14.51,0,0,1-13.8,9.937,14.629,14.629,0,0,1-4.908-.863l1.051.923v.134l-.751,155.493q.746,8.128.751,16.36,0,9.166-.91,18.176l-.582,121.947h-.291l-4.223-.022c-.122,2.56-.253,5.1-.375,7.622ZM742.313,13.13l-.3-.558-.666-.231C741.674,12.594,742,12.854,742.313,13.13Zm-9.188-3.6-.263-.089-71.443.008v1.3l-5.384,5.493h-29.7v7.771l60.676,24.093,28.333-15.348a14.6,14.6,0,0,1-.563-4,14.424,14.424,0,0,1,4.261-10.279,13.311,13.311,0,0,1,1.2-1.064,14.116,14.116,0,0,1,12.661-7.9c.075,0,.15.015.216.015Zm-72.287-.089-34.491.008V15.66H655.8l5.042-5.143Zm-36.725.015-484.5.067c-.015,1.7-.053,3.729-.1,6.141h484.6Zm-486.752.067-35.422.007,4.7,6.133h30.634C137.316,13.494,137.346,11.4,137.361,9.527Zm.008-.581c.029-3.089.007-5.53-.083-6.714H101.574V8.954ZM6.553,429.288V323.454a24.7,24.7,0,0,0-4.319,2.189v97.474Zm23.761,51.8h95.021c1.028-3.491,5.622-25.038,10.722-49.467a94.715,94.715,0,0,1-12.755,17.6c-2.852,13.673-4.929,23.722-5,24.027l-.052.26-.261-.029c-1.832-.193-59.2.223-78.461.372a17.763,17.763,0,0,1-3.581.409h-.179a17,17,0,0,1-7.543-1.756,14.14,14.14,0,0,1-7.111-5.3l-.893-.491-.373-1.719a13.95,13.95,0,0,1-1.3-5.866v-.059l-1.34-6.156L17.208,26.951a13.87,13.87,0,0,1-.827-4.7A14.132,14.132,0,0,1,30.507,8.135a13.988,13.988,0,0,1,4.721.826l65.757-.007V2.233H30.314A21.548,21.548,0,0,0,8.786,23.751v435.83a21.526,21.526,0,0,0,21.527,21.5Zm725.467-21.5V23.751A21.548,21.548,0,0,0,734.251,2.233H139.468c.1,1.2.157,3.223.134,6.714l484.5-.074V2.508h2.234V8.88l34.491-.007V2.508h.588V8.865l71.535-.007,2.778.945A13.682,13.682,0,0,1,739,10.919l3.416,1.169,1.314,2.493a14.132,14.132,0,0,1,2.778,5.292l1.933,3.692v.074l-2.478,339.725.366.008-.009.587-.366-.008-.1,14.224.479.008-.009.588-.469-.008L745.278,457a13.343,13.343,0,0,1,.066,1.377,13.982,13.982,0,0,1-1.943,7.108l-.6,2.308-6.954,4.615-2.3.216a17.234,17.234,0,0,1-5.415.885,17.412,17.412,0,0,1-3.726-.417l-81.737-1.436-.044-.231L637.174,443.5c-5.16-5.307-9.7-10.168-12.13-12.795l11.579,50.293-.454.1h98.1a21.546,21.546,0,0,0,21.52-21.518Zm6.87-125.8a26.309,26.309,0,0,0-4.627-2.314V437.534l3.885-6.252C761.946,425.365,762.6,339.643,762.65,333.785Z" transform="translate(0 0)" fill="#e9eef1"/><path d="M0,7.83a7.834,7.834,0,1,1,7.834,7.83A7.842,7.842,0,0,1,0,7.83Zm.581,0A7.253,7.253,0,1,0,7.834.581,7.26,7.26,0,0,0,.581,7.83Z" transform="translate(22.865 14.276)" fill="#e9eef1"/><path d="M0,7.83a7.832,7.832,0,1,1,7.837,7.83A7.839,7.839,0,0,1,0,7.83Zm.582,0A7.25,7.25,0,1,0,7.837.581,7.256,7.256,0,0,0,.582,7.83Z" transform="translate(724.885 15.668)" fill="#e9eef1"/><path d="M15.664,7.83A7.832,7.832,0,1,1,7.827,0a7.846,7.846,0,0,1,7.837,7.83Zm-.582,0a7.255,7.255,0,1,0-7.255,7.25,7.262,7.262,0,0,0,7.255-7.25Z" transform="translate(723.589 450.395)" fill="#e9eef1"/><path d="M15.666,7.83A7.833,7.833,0,1,1,7.834,0,7.841,7.841,0,0,1,15.666,7.83Zm-.581,0a7.252,7.252,0,1,0-7.252,7.249A7.26,7.26,0,0,0,15.086,7.83Z" transform="translate(24.64 451.148)" fill="#e9eef1"/><path d="M14.669,7.331A7.334,7.334,0,1,1,7.334,0,7.342,7.342,0,0,1,14.669,7.331Zm-2.234.008a5.1,5.1,0,1,0-5.1,5.1A5.1,5.1,0,0,0,12.435,7.338Z" transform="translate(32.302 390.256)" fill="#e9eef1"/><path d="M24.365,0A24.354,24.354,0,1,1,0,24.353,24.388,24.388,0,0,1,24.365,0ZM.588,24.353A23.776,23.776,0,1,0,24.365.588,23.8,23.8,0,0,0,.588,24.353Z" transform="translate(58.055 408.99)" fill="#e9eef1"/><path d="M5.655,5.649a19.314,19.314,0,1,1,0,27.331,19.367,19.367,0,0,1,0-27.331Zm.409,26.922a18.751,18.751,0,1,0,0-26.513,18.782,18.782,0,0,0,0,26.513Z" transform="translate(63.199 414.252)" fill="#e9eef1"/><path d="M.689,12.427A8.986,8.986,0,0,1,12.433.689,8.982,8.982,0,0,1,17.3,12.427a8.9,8.9,0,0,1-4.862,4.861,9.088,9.088,0,0,1-3.441.684,9.026,9.026,0,0,1-8.3-5.545Zm.544-.223A8.4,8.4,0,1,0,16.751,5.781,8.386,8.386,0,0,0,5.782,1.225,8.4,8.4,0,0,0,1.233,12.2Z" transform="translate(73.651 424.378)" fill="#e9eef1"/><path d="M0,24.353A24.363,24.363,0,1,1,24.362,48.708,24.387,24.387,0,0,1,0,24.353Zm.588,0A23.778,23.778,0,1,0,24.362.588,23.8,23.8,0,0,0,.588,24.353Z" transform="translate(655.625 411.223)" fill="#e9eef1"/><path d="M5.651,5.652a19.33,19.33,0,1,1,0,27.331,19.358,19.358,0,0,1,0-27.331Zm.417,26.922a18.735,18.735,0,1,0,0-26.513,18.63,18.63,0,0,0,0,26.513Z" transform="translate(660.556 416.482)" fill="#e9eef1"/><path d="M.687,12.419a8.983,8.983,0,1,1,16.6,0A8.981,8.981,0,0,1,5.542,17.287,8.851,8.851,0,0,1,.687,12.419Zm.537-.208A8.4,8.4,0,1,0,12.187,1.232a8.323,8.323,0,0,0-3.2-.64A8.42,8.42,0,0,0,1.216,5.78a8.331,8.331,0,0,0,.008,6.431Z" transform="translate(670.783 426.604)" fill="#e9eef1"/><path d="M35.86,17.923A17.93,17.93,0,1,1,17.93,0,17.945,17.945,0,0,1,35.86,17.923Zm-.587,0A17.342,17.342,0,1,0,17.93,35.258,17.36,17.36,0,0,0,35.273,17.923Z" transform="translate(169.998 380.223)" fill="#e9eef1"/><path d="M25.079,12.534A12.539,12.539,0,1,1,12.539,0,12.558,12.558,0,0,1,25.079,12.534Zm-.581,0A11.958,11.958,0,1,0,12.539,24.488,11.965,11.965,0,0,0,24.5,12.534Z" transform="translate(444.695 380.877)" fill="#e9eef1"/><path d="M25.086,12.534A12.543,12.543,0,1,1,12.547,0,12.553,12.553,0,0,1,25.086,12.534Zm-.581,0A11.958,11.958,0,1,0,12.547,24.488,11.97,11.97,0,0,0,24.505,12.534Z" transform="translate(291.22 380.877)" fill="#e9eef1"/><path d="M28.7,14.082H0V0H28.7ZM28.117.588H.588V13.495H28.117Z" transform="translate(362.854 452.554)" fill="#e9eef1"/><path d="M110.206.364l0,.588L0,.587,0,0Z" transform="translate(324.28 473.288)" fill="#e9eef1"/><path d="M20.76,10.376A10.38,10.38,0,1,1,10.38,0,10.386,10.386,0,0,1,20.76,10.376Zm-.581,0a9.8,9.8,0,1,0-9.8,9.8,9.8,9.8,0,0,0,9.8-9.8Z" transform="translate(592.089 443.51)" fill="#e9eef1"/><path d="M26.133,4.477a15.308,15.308,0,1,1-21.653,0A15.315,15.315,0,0,1,26.133,4.477Zm-.409.409a14.7,14.7,0,1,0,0,20.818,14.71,14.71,0,0,0,0-20.818Z" transform="translate(543.975 446.052)" fill="#e9eef1"/><path d="M26.121,4.477a15.295,15.295,0,1,1-21.653,0,15.315,15.315,0,0,1,21.653,0Zm-.409.409a14.707,14.707,0,1,0,0,20.825,14.721,14.721,0,0,0,0-20.825Z" transform="translate(183.148 443.931)" fill="#e9eef1"/><path d="M20.76,10.375A10.38,10.38,0,1,1,10.38,0,10.387,10.387,0,0,1,20.76,10.375Zm-.581.008a9.8,9.8,0,1,0-9.8,9.8A9.8,9.8,0,0,0,20.179,10.383Z" transform="translate(149.821 444.315)" fill="#e9eef1"/><path d="M0,47.42A47.426,47.426,0,0,1,87.062,21.384l.163.171-.038.023a47.253,47.253,0,0,1,7.409,31l.023.2h-.045A47.324,47.324,0,0,1,79.049,82.752l-.573.714-.119-.118A47.4,47.4,0,0,1,0,47.42ZM17.737,80.854l7.149-6.7L19.874,68.8l-8.035,5.828ZM55.013,91.125,52.83,79.76l-7.454.863L44.268,91.952ZM84.284,72.57l-8.042-5.2L71.156,72.8,78.3,80.1Zm1.058-49.749-10.6,7.152-7.775-8.307,8.184-9.928A44.938,44.938,0,0,0,53.129,2.59l-1.348,13.1-11.408.64L38.489,3.119A45.1,45.1,0,0,0,17.96,13.2l8.846,9.825L18.98,31.387,8.794,24A44.768,44.768,0,0,0,2.748,40.609L16.24,42.47l-.588,11.4L2.919,55.242a45.018,45.018,0,0,0,7.3,17.782l9.933-7.2,7.885,8.425L19.122,82.6a44.974,44.974,0,0,0,22.867,9.661L43.33,78.607l11.3-1.3L57.358,91.5a45.016,45.016,0,0,0,19.435-9.751l-8.719-8.909,7.818-8.358,10.09,6.527A44.886,44.886,0,0,0,92.341,52.6L79.19,51.573,79.1,40.17l12.532-2.233a45.372,45.372,0,0,0-6.292-15.117Zm5.741,17.491L81.35,42.046l.06,7.472,10.707.834ZM13.53,51.863l.38-7.45L3.187,42.932,3.008,52.995ZM10.581,22.537,18.7,28.432l5.079-5.426-7.2-7.994ZM40.775,3.289,42.3,14l7.454-.417L50.835,3.066ZM76.54,13.584l-6.605,8.008,5.131,5.486,8.72-5.887Z" transform="translate(171.241 168.154)" fill="#e9eef1"/><path d="M0,83.943a83.971,83.971,0,1,1,83.971,83.928A84.057,84.057,0,0,1,0,83.943Zm7.93-14.06.99-7.763L5.935,59.582a81.635,81.635,0,0,0,6.4,63.668l3.321-3.3-1.512-6.341,9.628-7.257c-4.349-8.143-3.656-28.924-3.433-33.688ZM26.762,106.9l-.156.119a56.77,56.77,0,1,0-.32-.827ZM6.664,57.409l.075-.089L11.3,61.2l-.886,6.952,11.676,2.62a63.4,63.4,0,1,1,2.658,37.64l-8.094,6.1,1.467,6.141-4.639,4.607A81.671,81.671,0,1,0,6.664,57.409Z" transform="translate(134.709 132.427)" fill="#e9eef1"/><path d="M10.548,3.453A11.989,11.989,0,0,1,8.634,9.087a16.546,16.546,0,0,1-2.01,2.59,11.229,11.229,0,0,1-2.16,1.652c-1.385.8-2.71.848-3.545.193C.049,12.846-.137,11.64.086,10.137a9.914,9.914,0,0,1,.729-2.4A14.833,14.833,0,0,1,2.171,5.1,14.853,14.853,0,0,1,5.731.974,5.083,5.083,0,0,1,7.54.088,2.369,2.369,0,0,1,9.148.2c.991.462,1.482,1.638,1.4,3.253ZM8.575,1.4c-.529-.26-1.393.082-2.331.871A15.47,15.47,0,0,0,4.77,3.75,16.559,16.559,0,0,0,3.31,5.8,13.2,13.2,0,0,0,2.141,8.03,11.591,11.591,0,0,0,1.463,10c-.275,1.191-.178,2.136.283,2.479.477.358,1.37.157,2.45-.543a8.972,8.972,0,0,0,1.69-1.414A16.037,16.037,0,0,0,7.518,8.387,13.538,13.538,0,0,0,8.679,5.961,8.038,8.038,0,0,0,9.2,3.825c.127-1.28-.1-2.181-.625-2.427Z" transform="translate(273.711 246.493)" fill="#e9eef1"/><path d="M12.429.643c.774.744.886,2.047.291,3.528a9.925,9.925,0,0,1-1.349,2.36A17.318,17.318,0,0,1,9.086,8.891a17.3,17.3,0,0,1-2.748,1.793,10.227,10.227,0,0,1-2.576.871C2.2,11.86.94,11.495.352,10.595s-.4-2.122.305-3.476A10.849,10.849,0,0,1,2.116,5.087,14.608,14.608,0,0,1,4.261,3.032a14.306,14.306,0,0,1,2.42-1.712A10.743,10.743,0,0,1,8.96.271c1.467-.424,2.7-.388,3.47.372Zm-.924.945c-.848-.826-3.655.179-6.4,2.471C2.332,6.315.806,8.883,1.461,9.872c.626.96,3.776.447,6.791-2,2.986-2.5,4.081-5.486,3.254-6.282Z" transform="translate(257.056 265.283)" fill="#e9eef1"/><path d="M14.725,1.472c.476.946.171,2.234-.872,3.439a10.992,10.992,0,0,1-2.04,1.794A16.3,16.3,0,0,1,8.879,8.179a11.992,11.992,0,0,1-5.905.8c-1.593-.246-2.643-.939-2.911-2-.26-1.034.306-2.18,1.415-3.2A14.71,14.71,0,0,1,6.213,1.078,15.882,15.882,0,0,1,9.066.259,9.712,9.712,0,0,1,11.56.006c1.519.074,2.665.484,3.165,1.466Zm-1.177.6c-.253-.513-1.154-.789-2.383-.752a12.078,12.078,0,0,0-2.07.282,14.163,14.163,0,0,0-2.412.714A18.276,18.276,0,0,0,4.389,3.356,14.817,14.817,0,0,0,2.654,4.516c-.96.767-1.459,1.549-1.31,2.114s.99.968,2.271,1.094a8.026,8.026,0,0,0,2.2-.1A12.85,12.85,0,0,0,8.417,6.95,16.055,16.055,0,0,0,10.83,5.759a9.1,9.1,0,0,0,1.713-1.384c.886-.93,1.259-1.763,1.005-2.3Z" transform="translate(235.903 278.328)" fill="#e9eef1"/><path d="M15.111,6.351c-.2,1.072-1.221,1.854-2.792,2.174A9.565,9.565,0,0,1,9.6,8.688a17.253,17.253,0,0,1-3.224-.625A18.145,18.145,0,0,1,3.368,6.739,10.1,10.1,0,0,1,1.231,5.056C.122,3.91-.258,2.659.174,1.678.614.68,1.746.188,3.257.033a10.791,10.791,0,0,1,2.5.112,14.36,14.36,0,0,1,2.89.67A14.948,14.948,0,0,1,11.4,1.9a11.836,11.836,0,0,1,2.122,1.332C14.679,4.215,15.319,5.287,15.111,6.351ZM8.253,2.079c-3.411-1.087-6.388-.96-6.865.127C.926,3.255,3.071,5.615,6.779,6.8c3.723,1.131,6.829.417,7.044-.714.223-1.162-2.152-2.963-5.57-4Z" transform="translate(189.729 279.805)" fill="#e9eef1"/><path d="M12.688,6.574c.775,1.3,1.05,2.493.5,3.446-.528.923-1.772,1.362-3.358,1.153a10.88,10.88,0,0,1-2.621-.729A16.446,16.446,0,0,1,4.371,8.792a12.064,12.064,0,0,1-3.887-4.5C-.179,2.83-.172,1.557.574.754,1.3-.036,2.561-.17,4.028.188A14.76,14.76,0,0,1,8.876,2.681a14.978,14.978,0,0,1,2.249,1.935,9.322,9.322,0,0,1,1.564,1.958Zm-1.31.387a11.98,11.98,0,0,0-1.37-1.578A13.25,13.25,0,0,0,8.094,3.746,17.447,17.447,0,0,0,5.972,2.391a14.457,14.457,0,0,0-1.921-.819c-1.162-.387-2.1-.379-2.487.06s-.268,1.362.328,2.5A8.29,8.29,0,0,0,3.172,5.919,12.456,12.456,0,0,0,5.16,7.728,15.765,15.765,0,0,0,7.476,9.1a9.735,9.735,0,0,0,2.1.678c1.259.246,2.167.089,2.472-.417s.03-1.392-.67-2.4Z" transform="translate(169.712 267.912)" fill="#e9eef1"/><path d="M10.824,9.684c.335,1.466.178,2.709-.64,3.424s-2.1.7-3.552.008a10.79,10.79,0,0,1-2.226-1.548A14.618,14.618,0,0,1,2.253,9.089,13.442,13.442,0,0,1,.69,6.2,8.5,8.5,0,0,1,.027,3.574C-.114,1.966.295.775,1.248.262S3.444.016,4.7.842A13.668,13.668,0,0,1,6.617,2.457a20.421,20.421,0,0,1,1.87,2.3,18.739,18.739,0,0,1,1.5,2.56,9.126,9.126,0,0,1,.834,2.367ZM9.469,9.618a10.424,10.424,0,0,0-.789-1.935A14.456,14.456,0,0,0,7.406,5.509,21.681,21.681,0,0,0,5.835,3.544,12.149,12.149,0,0,0,4.271,2.152C3.3,1.408,2.417,1.11,1.911,1.4s-.7,1.206-.507,2.479a8.982,8.982,0,0,0,.641,2.1,11.821,11.821,0,0,0,1.3,2.352,15.292,15.292,0,0,0,1.735,2.047,10.78,10.78,0,0,0,1.764,1.317c1.1.655,2.033.782,2.48.4s.462-1.288.142-2.479Z" transform="translate(154.638 249.938)" fill="#e9eef1"/><path d="M.054,11.785A10.891,10.891,0,0,1,.128,9.069a14.258,14.258,0,0,1,.9-3.156A13.209,13.209,0,0,1,2.592,3.025a12.406,12.406,0,0,1,.886-1.132,8.488,8.488,0,0,1,.954-.862C5.705.041,6.926-.272,7.879.249s1.408,1.712,1.4,3.215a9.6,9.6,0,0,1-.1,1.183,12.633,12.633,0,0,1-.216,1.3,20.6,20.6,0,0,1-.908,2.821,19.2,19.2,0,0,1-1.325,2.649,9.61,9.61,0,0,1-1.519,1.994C4.163,14.487,3.047,15.038,2,14.748.97,14.466.262,13.379.054,11.785Zm1.28-.61c.053,1.28.454,2.129,1.02,2.3.551.163,1.334-.32,2.159-1.244A9.644,9.644,0,0,0,5.705,10.52,14.514,14.514,0,0,0,6.83,8.265a21.4,21.4,0,0,0,.789-2.389,11.612,11.612,0,0,0,.313-2.068c.1-1.221-.142-2.122-.655-2.389s-1.385.067-2.353.923A9.879,9.879,0,0,0,3.516,4.03,11.13,11.13,0,0,0,2.25,6.4,15.238,15.238,0,0,0,1.483,8.98a11.274,11.274,0,0,0-.149,2.2Z" transform="translate(148.009 182.219)" fill="#e9eef1"/><path d="M.119,9.064A12.209,12.209,0,0,1,2.956,3.839,15.48,15.48,0,0,1,4.132,2.6c.409-.365.827-.693,1.236-.99A8.8,8.8,0,0,1,7.751.318C9.278-.2,10.543-.091,11.273.7s.767,2.069.268,3.484a12.18,12.18,0,0,1-1.1,2.255,12.275,12.275,0,0,1-.819,1.168c-.3.394-.6.812-.953,1.206a14.556,14.556,0,0,1-4.207,3.469c-1.325.692-2.584.833-3.477.216S-.187,10.649.119,9.064Zm1.638,2.352c.961.67,3.56-.789,5.92-3.476a14.491,14.491,0,0,0,2.487-3.863c.469-1.131.558-2.047.148-2.471-.394-.417-1.34-.394-2.524.112A11.463,11.463,0,0,0,3.946,4.694C1.384,7.62.8,10.761,1.756,11.416Z" transform="translate(159.022 163.296)" fill="#e9eef1"/><path d="M.411,9.348C-.237,8.485-.1,7.22.7,5.821A9.182,9.182,0,0,1,2.429,3.729,14.059,14.059,0,0,1,3.635,2.7c.439-.32.931-.618,1.437-.916A12.807,12.807,0,0,1,8.081.462,10.11,10.11,0,0,1,10.754,0c1.624.008,2.785.528,3.217,1.519s.059,2.2-.879,3.371a10.693,10.693,0,0,1-1.764,1.787A21.913,21.913,0,0,1,8.878,8.351c-.462.268-.924.5-1.37.708a13,13,0,0,1-1.3.58,12.967,12.967,0,0,1-2.427.64,3.4,3.4,0,0,1-3.365-.93Zm1.072-.767c.343.484,1.251.573,2.457.328A14.664,14.664,0,0,0,8.208,7.2c3.09-1.8,5.018-4.079,4.549-5.143S9.1.968,5.736,2.925a11.409,11.409,0,0,0-3.656,3.2c-.723,1.057-.931,1.987-.6,2.456Z" transform="translate(175.937 149.658)" fill="#e9eef1"/><path d="M1.192,5.023C.2,3.907-.245,2.708.135,1.7S1.639.1,3.254.014a9.151,9.151,0,0,1,2.7.305c.491.119,1,.276,1.518.454a13.963,13.963,0,0,1,1.556.7,12.131,12.131,0,0,1,4.595,3.78c.871,1.363,1.072,2.62.477,3.521s-1.809,1.25-3.3,1.1a14.4,14.4,0,0,1-5.2-1.637C5.116,8,4.677,7.732,4.253,7.48s-.827-.507-1.2-.774A12.306,12.306,0,0,1,1.192,5.023Zm1.244-.61A9.921,9.921,0,0,0,4.029,5.768c.313.222.655.432,1.02.648.349.222.729.438,1.132.648,3.194,1.608,6.15,1.979,6.79,1,.306-.476.075-1.429-.729-2.411a11.236,11.236,0,0,0-3.82-3c-.432-.223-.857-.418-1.274-.588a10.587,10.587,0,0,0-1.236-.387,10.7,10.7,0,0,0-2.167-.35c-1.281-.023-2.175.313-2.383.848C1.147,2.731,1.572,3.542,2.436,4.413Z" transform="translate(243.319 147.999)" fill="#e9eef1"/><path d="M.428,4.311C-.146,2.919-.168,1.639.517.8S2.453-.207,4,.24A9.2,9.2,0,0,1,5.208.687a11.239,11.239,0,0,1,1.244.707A13.288,13.288,0,0,1,8.983,3.478,12.313,12.313,0,0,1,12.1,8.546c.4,1.564.163,2.829-.685,3.491s-2.107.581-3.477-.03A14.408,14.408,0,0,1,3.548,8.769,20.99,20.99,0,0,1,1.641,6.491,12.464,12.464,0,0,1,.949,5.36,8,8,0,0,1,.428,4.311ZM1.79,4.132a12.025,12.025,0,0,0,1.073,1.8,21.282,21.282,0,0,0,1.63,1.92A15.747,15.747,0,0,0,6.384,9.521a9.958,9.958,0,0,0,1.75,1.139c1.109.543,2.01.707,2.465.343s.514-1.318.082-2.516A11.429,11.429,0,0,0,9.721,6.5,14.74,14.74,0,0,0,8.038,4.4,11.356,11.356,0,0,0,5.975,2.673,9.344,9.344,0,0,0,4.039,1.639c-1.221-.432-2.152-.424-2.531.022s-.253,1.37.282,2.471Z" transform="translate(263.229 160.613)" fill="#e9eef1"/><path d="M.009,3.594C-.065,2.083.314.877,1.223.311,2.146-.262,3.4-.031,4.708.9A12.017,12.017,0,0,1,8.386,5.581a16.16,16.16,0,0,1,1.08,3.1,10.8,10.8,0,0,1,.216,2.709c-.09,1.593-.768,2.732-1.773,3.075-1.043.357-2.152-.149-3.291-1.154A9.518,9.518,0,0,1,3,11.4,15.309,15.309,0,0,1,1.529,8.826,14.887,14.887,0,0,1,.009,3.594Zm1.348.275A14.335,14.335,0,0,0,1.8,5.916a19.34,19.34,0,0,0,.924,2.337,13.561,13.561,0,0,0,1.236,2.2,12.324,12.324,0,0,0,1.289,1.645c.856.878,1.7,1.31,2.234,1.116.558-.2.871-1.064.878-2.344A9.318,9.318,0,0,0,8.1,8.678a15.191,15.191,0,0,0-.9-2.531,12.586,12.586,0,0,0-1.4-2.3,8.3,8.3,0,0,0-1.5-1.6c-1.005-.8-1.891-1.093-2.39-.8s-.684,1.213-.543,2.419Z" transform="translate(277.897 178.762)" fill="#e9eef1"/><path d="M0,47.42A47.426,47.426,0,0,1,87.062,21.384l.163.172-.037.022A47.208,47.208,0,0,1,94.6,52.571l.023.208h-.045A47.363,47.363,0,0,1,79.05,82.744l-.573.715-.119-.119A47.4,47.4,0,0,1,0,47.42Zm17.774,33.4,7.111-6.669-5.1-5.456-8.608,4.6Zm37.239,10.3L52.831,79.76l-7.454.863L44.268,91.952ZM84.291,72.57l-8.041-5.2L71.164,72.8,78.3,80.1Zm1.058-49.764-10.6,7.152-7.774-8.306,8.183-9.929A44.943,44.943,0,0,0,53.136,2.575l-1.348,13.1-11.4.64L38.505,3.1a45.122,45.122,0,0,0-20.53,10.085l8.846,9.825L19,31.372,8.809,23.982A44.774,44.774,0,0,0,2.763,40.594l13.492,1.861-.587,11.4L2.934,55.227A44.783,44.783,0,0,0,9.367,71.714L20.246,65.9l7.8,8.337L19.13,82.6A44.961,44.961,0,0,0,42,92.257L43.337,78.6l11.3-1.3L57.366,91.49a45.049,45.049,0,0,0,19.427-9.75l-8.72-8.909,7.819-8.359L85.982,71a44.884,44.884,0,0,0,6.358-18.407L79.191,51.565l-.09-11.4L91.633,37.93A45.314,45.314,0,0,0,85.349,22.806ZM91.09,40.3l-9.732,1.734.06,7.473,10.707.833ZM13.531,51.864l.379-7.451L3.187,42.932,3.009,52.995ZM10.582,22.545,18.7,28.433l5.078-5.426-7.2-7.994ZM40.775,3.283,42.3,13.993l7.454-.417L50.835,3.06ZM76.54,13.569l-6.6,8.008,5.13,5.486,8.72-5.88Z" transform="translate(493.526 165.221)" fill="#e9eef1"/><path d="M0,83.936a83.971,83.971,0,1,1,83.971,83.935A84.05,84.05,0,0,1,0,83.936ZM9.509,69.072l.231-5.508L5.786,60.1a81.613,81.613,0,0,0,6.463,62.984l3.984-3.93-1.5-6.356,8.906-6.482c-1.675-3.209-2.487-8.426-2.845-13.881a63.952,63.952,0,0,1-.409-7.093c0-1.787.1-3.543.238-5.292.1-3.692.3-6.7.409-8.18ZM26.643,106.89l-.06.045a61.144,61.144,0,1,0-3.708-26.989c-.1,3.647-.127,7.979.127,12.14a60.511,60.511,0,0,0,3.44,14.529ZM6.285,58.585l.5-.573L12.026,62.6l-.2,4.741,10.484,2.545a63.409,63.409,0,1,1,2.405,38.422l-7.461,5.433,1.444,6.141L13.4,125.1l-.03-.03A81.687,81.687,0,1,0,6.285,58.585Z" transform="translate(456.998 129.494)" fill="#e9eef1"/><path d="M10.548,3.452A11.986,11.986,0,0,1,8.635,9.087a16.5,16.5,0,0,1-2.01,2.59,11.229,11.229,0,0,1-2.16,1.652c-1.385.8-2.71.849-3.545.194C.049,12.846-.137,11.64.087,10.136a9.885,9.885,0,0,1,.729-2.4A14.833,14.833,0,0,1,2.171,5.1,14.838,14.838,0,0,1,5.731.973,5,5,0,0,1,7.541.088,2.345,2.345,0,0,1,9.141.2c.984.468,1.482,1.644,1.408,3.252ZM8.561,1.4c-.529-.26-1.393.083-2.331.871A15.58,15.58,0,0,0,4.755,3.75,16.631,16.631,0,0,0,3.3,5.8,13.1,13.1,0,0,0,2.127,8.03,11.484,11.484,0,0,0,1.449,10c-.275,1.191-.178,2.136.283,2.479.477.358,1.37.157,2.449-.543a9.176,9.176,0,0,0,1.69-1.414A15.958,15.958,0,0,0,7.5,8.387,13.539,13.539,0,0,0,8.665,5.961a8.038,8.038,0,0,0,.521-2.136c.127-1.28-.1-2.166-.625-2.427Z" transform="translate(596.015 243.554)" fill="#e9eef1"/><path d="M12.429.648c.774.744.886,2.047.291,3.529a9.966,9.966,0,0,1-1.348,2.359A17.384,17.384,0,0,1,9.086,8.9a17.3,17.3,0,0,1-2.748,1.793,10.227,10.227,0,0,1-2.576.871C2.2,11.865.94,11.5.351,10.6c-.6-.916-.394-2.121.305-3.476A10.88,10.88,0,0,1,2.116,5.092,14.608,14.608,0,0,1,4.26,3.038a14.36,14.36,0,0,1,2.42-1.712A10.743,10.743,0,0,1,8.959.277c1.459-.432,2.688-.394,3.47.372Zm-.923.939C10.657.76,7.85,1.765,5.1,4.058,2.325,6.313.806,8.881,1.453,9.871c.626.96,3.776.446,6.791-2,2.986-2.494,4.088-5.486,3.261-6.281Z" transform="translate(579.353 262.345)" fill="#e9eef1"/><path d="M14.724,1.473c.477.945.171,2.233-.871,3.439A11.085,11.085,0,0,1,11.813,6.7,16.36,16.36,0,0,1,8.879,8.178a11.994,11.994,0,0,1-5.905.8C1.381,8.729.33,8.037.063,6.972c-.261-1.034.305-2.18,1.414-3.2A14.756,14.756,0,0,1,6.213,1.078,15.882,15.882,0,0,1,9.065.259,9.757,9.757,0,0,1,11.56.006c1.519.068,2.665.484,3.165,1.467Zm-1.177.6c-.252-.513-1.154-.789-2.383-.752A12.069,12.069,0,0,0,9.1,1.6a14.094,14.094,0,0,0-2.413.715A18.415,18.415,0,0,0,4.389,3.348,14.957,14.957,0,0,0,2.654,4.509c-.961.767-1.459,1.549-1.311,2.114s.99.968,2.271,1.094a8.036,8.036,0,0,0,2.2-.1,12.845,12.845,0,0,0,2.606-.677A16.178,16.178,0,0,0,10.83,5.752a9.179,9.179,0,0,0,1.713-1.384c.893-.923,1.266-1.764,1.005-2.3Z" transform="translate(558.189 275.396)" fill="#e9eef1"/><path d="M15.111,6.351c-.2,1.072-1.222,1.854-2.793,2.174A9.56,9.56,0,0,1,9.6,8.689a17.259,17.259,0,0,1-3.224-.626A18.169,18.169,0,0,1,3.369,6.739,10.076,10.076,0,0,1,1.231,5.056C.121,3.91-.258,2.66.174,1.678.613.68,1.745.189,3.257.033a10.783,10.783,0,0,1,2.5.112,14.229,14.229,0,0,1,2.89.67A14.922,14.922,0,0,1,11.4,1.9a11.846,11.846,0,0,1,2.123,1.332c1.161.983,1.8,2.054,1.586,3.119ZM8.26,2.079C4.85.993,1.872,1.119,1.395,2.206.926,3.255,3.07,5.615,6.778,6.8c3.723,1.132,6.829.417,7.044-.714.223-1.161-2.152-2.963-5.563-4Z" transform="translate(512.015 276.865)" fill="#e9eef1"/><path d="M12.688,6.574c.775,1.3,1.05,2.494.5,3.446-.528.923-1.772,1.362-3.358,1.153a10.837,10.837,0,0,1-2.621-.729A16.386,16.386,0,0,1,4.371,8.791a12.05,12.05,0,0,1-3.887-4.5C-.179,2.83-.172,1.557.574.753,1.3-.035,2.561-.17,4.028.187A14.778,14.778,0,0,1,8.876,2.681a15.032,15.032,0,0,1,2.249,1.935,9.593,9.593,0,0,1,1.564,1.958ZM11.37,6.96A11.98,11.98,0,0,0,10,5.383,13.309,13.309,0,0,0,8.086,3.745,17.561,17.561,0,0,0,5.964,2.391a14.442,14.442,0,0,0-1.921-.818c-1.162-.388-2.1-.38-2.487.059s-.268,1.362.328,2.5A8.318,8.318,0,0,0,3.165,5.919,12.728,12.728,0,0,0,5.153,7.727,15.775,15.775,0,0,0,7.469,9.1a9.781,9.781,0,0,0,2.1.677c1.259.246,2.167.089,2.472-.417.3-.491.038-1.4-.67-2.4Z" transform="translate(492.009 264.98)" fill="#e9eef1"/><path d="M10.824,9.684c.335,1.467.179,2.709-.64,3.424-.8.708-2.1.7-3.552.008a10.779,10.779,0,0,1-2.226-1.548A14.617,14.617,0,0,1,2.254,9.089,13.461,13.461,0,0,1,.69,6.2,8.49,8.49,0,0,1,.027,3.574C-.114,1.966.295.775,1.248.262S3.445.016,4.7.843A13.726,13.726,0,0,1,6.618,2.458a20.219,20.219,0,0,1,1.869,2.3,18.846,18.846,0,0,1,1.5,2.56,9.218,9.218,0,0,1,.833,2.367ZM9.469,9.625A10.424,10.424,0,0,0,8.679,7.69,14.527,14.527,0,0,0,7.407,5.516,21.683,21.683,0,0,0,5.835,3.551,12.221,12.221,0,0,0,4.271,2.159c-.968-.744-1.854-1.042-2.36-.752s-.7,1.2-.506,2.479a8.976,8.976,0,0,0,.64,2.1,11.821,11.821,0,0,0,1.3,2.352,15.233,15.233,0,0,0,1.735,2.047A10.83,10.83,0,0,0,6.847,11.7c1.1.654,2.033.781,2.48.4s.461-1.3.141-2.479Z" transform="translate(476.927 246.998)" fill="#e9eef1"/><path d="M.053,11.779A10.891,10.891,0,0,1,.127,9.069a14.258,14.258,0,0,1,.9-3.156A13.292,13.292,0,0,1,2.592,3.025a12.229,12.229,0,0,1,.887-1.131,8.324,8.324,0,0,1,.953-.863C5.7.041,6.933-.272,7.879.249s1.407,1.712,1.4,3.215a9.4,9.4,0,0,1-.1,1.183,12.632,12.632,0,0,1-.216,1.3,20.435,20.435,0,0,1-.908,2.821,19.1,19.1,0,0,1-1.325,2.649,9.618,9.618,0,0,1-1.519,2C4.163,14.488,3.046,15.038,2,14.748S.254,13.371.053,11.779Zm1.274-.6c.052,1.28.454,2.129,1.02,2.3.551.163,1.333-.32,2.159-1.243A9.688,9.688,0,0,0,5.7,10.52,14.431,14.431,0,0,0,6.822,8.265a21.2,21.2,0,0,0,.789-2.389,11.523,11.523,0,0,0,.313-2.069c.1-1.221-.134-2.121-.655-2.389s-1.385.068-2.353.923A9.87,9.87,0,0,0,3.508,4.03,11.13,11.13,0,0,0,2.242,6.4,15.325,15.325,0,0,0,1.475,8.98a11.767,11.767,0,0,0-.148,2.2Z" transform="translate(470.302 179.286)" fill="#e9eef1"/><path d="M.118,9.064A12.2,12.2,0,0,1,2.955,3.839,15.659,15.659,0,0,1,4.131,2.6c.41-.364.827-.692,1.236-.99A8.824,8.824,0,0,1,7.75.318C9.277-.2,10.542-.091,11.272.706s.767,2.069.268,3.483a12.152,12.152,0,0,1-1.1,2.255,12.444,12.444,0,0,1-.818,1.169c-.3.394-.6.811-.954,1.205a14.529,14.529,0,0,1-4.207,3.469c-1.325.693-2.591.833-3.477.216S-.188,10.649.118,9.064Zm1.645,2.359c.961.67,3.56-.789,5.92-3.476A14.476,14.476,0,0,0,10.17,4.084c.469-1.131.558-2.047.148-2.471-.394-.417-1.34-.394-2.524.112A11.455,11.455,0,0,0,3.952,4.7C1.384,7.627.8,10.761,1.763,11.423Z" transform="translate(481.311 160.355)" fill="#e9eef1"/><path d="M.411,9.348C-.237,8.485-.1,7.22.7,5.821A9.2,9.2,0,0,1,2.429,3.729,14.23,14.23,0,0,1,3.635,2.7c.439-.32.931-.618,1.438-.916A12.818,12.818,0,0,1,8.08.462,10.11,10.11,0,0,1,10.753,0c1.624.008,2.786.528,3.217,1.519s.059,2.2-.878,3.372a10.769,10.769,0,0,1-1.765,1.786A21.827,21.827,0,0,1,8.877,8.351c-.462.268-.924.5-1.37.708a13.086,13.086,0,0,1-1.3.58,12.9,12.9,0,0,1-2.428.64c-1.482.216-2.725-.067-3.365-.93Zm1.072-.767c.343.484,1.251.573,2.458.328A14.67,14.67,0,0,0,8.207,7.2c3.091-1.8,5.018-4.079,4.55-5.143S9.1.968,5.735,2.925a11.43,11.43,0,0,0-3.656,3.2c-.722,1.057-.924,1.98-.6,2.456Z" transform="translate(498.227 146.725)" fill="#e9eef1"/><path d="M1.192,5.023C.2,3.906-.245,2.708.134,1.7S1.639.1,3.255.014a9.111,9.111,0,0,1,2.7.305c.491.119,1,.275,1.518.453a14.228,14.228,0,0,1,1.557.7A12.136,12.136,0,0,1,13.62,5.254c.871,1.362,1.072,2.619.477,3.52s-1.809,1.25-3.3,1.1a14.4,14.4,0,0,1-5.2-1.638c-.477-.238-.916-.506-1.34-.759s-.827-.506-1.2-.774A12.679,12.679,0,0,1,1.192,5.023Zm1.236-.6a10.39,10.39,0,0,0,1.6,1.354c.313.223.655.432,1.02.648.35.223.729.439,1.132.648,3.195,1.608,6.15,1.979,6.791,1.005.305-.477.074-1.429-.73-2.412a11.226,11.226,0,0,0-3.82-3c-.432-.223-.856-.417-1.274-.588a10.711,10.711,0,0,0-1.236-.387,10.692,10.692,0,0,0-2.167-.35c-1.28-.023-2.174.313-2.383.848s.209,1.355,1.065,2.234Z" transform="translate(565.609 145.059)" fill="#e9eef1"/><path d="M.428,4.311C-.146,2.919-.168,1.639.517.806S2.453-.207,4,.24A9.2,9.2,0,0,1,5.208.687a10.731,10.731,0,0,1,1.244.707A13.263,13.263,0,0,1,8.984,3.478,12.316,12.316,0,0,1,12.1,8.547c.4,1.563.163,2.828-.685,3.49s-2.107.581-3.477-.03A14.4,14.4,0,0,1,3.548,8.77,21.08,21.08,0,0,1,1.641,6.492,12.606,12.606,0,0,1,.949,5.36,6.445,6.445,0,0,1,.428,4.311ZM1.79,4.133a12.019,12.019,0,0,0,1.073,1.8,21.282,21.282,0,0,0,1.63,1.92A15.842,15.842,0,0,0,6.384,9.522a9.949,9.949,0,0,0,1.75,1.138c1.109.543,2.01.707,2.465.343s.514-1.318.082-2.516A11.391,11.391,0,0,0,9.721,6.5,14.746,14.746,0,0,0,8.038,4.4,11.356,11.356,0,0,0,5.975,2.673,9.345,9.345,0,0,0,4.039,1.639c-1.221-.432-2.152-.424-2.531.023s-.261,1.362.282,2.471Z" transform="translate(585.526 157.68)" fill="#e9eef1"/><path d="M.009,3.594C-.065,2.083.315.877,1.223.312S3.4-.031,4.708.9A12.028,12.028,0,0,1,8.386,5.581a16.138,16.138,0,0,1,1.08,3.1,10.794,10.794,0,0,1,.216,2.709c-.09,1.593-.768,2.731-1.773,3.074-1.042.358-2.152-.149-3.291-1.153A9.544,9.544,0,0,1,3,11.4,15.309,15.309,0,0,1,1.529,8.827,14.7,14.7,0,0,1,.009,3.594Zm1.348.276A14.493,14.493,0,0,0,1.8,5.916a19.655,19.655,0,0,0,.924,2.337,13.591,13.591,0,0,0,1.236,2.2,12.263,12.263,0,0,0,1.289,1.645c.856.878,1.7,1.31,2.234,1.117.558-.2.871-1.064.878-2.344A8.949,8.949,0,0,0,8.1,8.677a14.919,14.919,0,0,0-.9-2.53,12.586,12.586,0,0,0-1.4-2.3,8.248,8.248,0,0,0-1.5-1.6C3.285,1.442,2.4,1.152,1.9,1.45s-.693,1.213-.544,2.419Z" transform="translate(600.194 175.822)" fill="#e9eef1"/><path d="M0,99.209C0,44.5,45.169,0,100.688,0S201.376,44.51,201.376,99.209s-45.168,99.209-100.688,99.209S0,153.915,0,99.209Zm.581.008c0,54.379,44.908,98.62,100.107,98.62S200.795,153.6,200.795,99.216,155.886.6,100.688.6.581,44.837.581,99.216Z" transform="translate(443.064 114.311)" fill="#e9eef1"/><path d="M0,94.416C0,42.359,42.994,0,95.833,0s95.825,42.359,95.825,94.416-42.987,94.416-95.825,94.416S0,146.473,0,94.416Zm.587.007c0,51.745,42.727,93.835,95.245,93.835s95.244-42.1,95.244-93.835S148.351.588,95.833.588.587,42.679.587,94.423Z" transform="translate(446.55 119.156)" fill="#e9eef1"/><path d="M0,98.495C0,44.182,44.841,0,99.965,0s99.966,44.182,99.966,98.495-44.842,98.494-99.966,98.494S0,152.8,0,98.495Zm.588,0c0,53.984,44.573,97.914,99.377,97.914s99.385-43.922,99.385-97.914S154.762.58,99.965.58.588,44.51.588,98.495Z" transform="translate(119.436 119.216)" fill="#e9eef1"/><path d="M0,93.738C0,42.054,42.681,0,95.14,0s95.14,42.054,95.14,93.738S147.6,187.476,95.14,187.476,0,145.423,0,93.738Zm.581,0C.581,145.1,43,186.9,95.14,186.9S189.7,145.1,189.7,93.738,147.279.581,95.14.581.581,42.374.581,93.738Z" transform="translate(122.908 124.016)" fill="#e9eef1"/><path d="M0,100.943C0,45.284,45.958,0,102.452,0S204.905,45.284,204.905,100.943,158.947,201.886,102.452,201.886,0,156.6,0,100.943Zm.588,0c0,55.332,45.7,100.356,101.864,100.356s101.865-45.016,101.865-100.356S158.619.588,102.452.588.588,45.6.588,100.943Z" transform="translate(116.504 116.626)" fill="#e9eef1"/><path d="M27.7,14.67c0,8.485-5.368,14.715-13.85,14.715C5.324,29.385,0,23.148,0,14.67S5.324,0,13.85,0C22.332,0,27.7,6.185,27.7,14.67Zm-4.7,0c0-5.679-2.68-10.651-9.151-10.651s-9.2,4.972-9.2,10.651c0,5.716,2.725,10.688,9.2,10.688S23,20.387,23,14.67Z" transform="translate(461.694 65.685)" fill="#e9eef1"/><path d="M13.419,0h4.14V20.155h-4.14v-2.6h-.083a7.615,7.615,0,0,1-6.627,3.156C2.956,20.706,0,18.541,0,13.926V0H4.185V12.735c0,2.724,1.139,4.458,3.984,4.458,3.195,0,5.25-1.928,5.25-4.927Z" transform="translate(492.551 74.319)" fill="#e9eef1"/><path d="M7.1,6.356h3.79V9.75H7.1V20.677c0,2.285,1.109,2.56,3.79,2.4v3.394a12.322,12.322,0,0,1-2.845.313c-3.313,0-5.13-1.5-5.13-5.761V9.743H0V6.349H2.92V0H7.1Z" transform="translate(512.799 67.97)" fill="#e9eef1"/><path d="M4.141,10.658c0,3.789,1.7,7.257,5.8,7.257a4.683,4.683,0,0,0,5.012-4.7h4.141c-.313,4.652-3.9,8.083-9.152,8.083C3.91,21.3,0,16.963,0,10.651S3.9,0,9.9,0c5.249,0,8.682,3.349,9.2,7.927H14.96A4.677,4.677,0,0,0,9.948,3.394c-4.066,0-5.807,3.476-5.807,7.264Z" transform="translate(525.428 73.768)" fill="#e9eef1"/><path d="M20.283,10.651c0,6.274-3.827,10.651-10.142,10.651S0,16.926,0,10.651,3.827,0,10.141,0,20.283,4.376,20.283,10.651Zm-4.14,0c0-4.183-2.055-7.257-6-7.257S4.147,6.468,4.147,10.651c0,4.138,2.048,7.257,5.994,7.257S16.136,14.789,16.143,10.651Z" transform="translate(546.186 73.769)" fill="#e9eef1"/><path d="M28.408,6.8V20.722H24.223V7.979c0-2.724-.551-4.458-3.4-4.458-2.8,0-4.535,1.928-4.535,4.927V20.714H12.108V7.971c0-2.724-.551-4.458-3.432-4.458-2.763,0-4.535,1.928-4.535,4.927V20.707H0V.551H4.141V3.156h.082A6.967,6.967,0,0,1,10.217,0c2.845,0,4.542,1.3,5.368,3.468h.083A7.949,7.949,0,0,1,22.257,0c4.058,0,6.151,2.449,6.151,6.8Z" transform="translate(569.351 73.768)" fill="#e9eef1"/><path d="M19.62,11.715H4.155c0,3.394,2.167,6.193,5.837,6.193,3.433,0,4.811-2.129,5.168-3.349H19.3c-1.028,3.826-4.028,6.744-9.2,6.744C3.827,21.3,0,16.963,0,10.651,0,4.1,3.827,0,9.9,0c6.509,0,9.71,4.533,9.717,11.715ZM15.466,8.634A5.212,5.212,0,0,0,9.9,3.268c-3.358,0-5.763,2.248-5.763,5.366Z" transform="translate(600.531 73.769)" fill="#e9eef1"/><path d="M27.7,14.67c0,8.485-5.369,14.715-13.851,14.715C5.324,29.385,0,23.148,0,14.67S5.324,0,13.85,0C22.331,0,27.7,6.185,27.7,14.67Zm-4.7,0c0-5.679-2.68-10.651-9.151-10.651s-9.2,4.972-9.2,10.651c0,5.716,2.725,10.688,9.2,10.688S23.008,20.387,23,14.67Z" transform="translate(153.915 65.685)" fill="#e9eef1"/><path d="M13.418,0h4.141V20.156H13.418V17.551h-.082a7.616,7.616,0,0,1-6.627,3.156C2.956,20.707,0,18.541,0,13.926V0H4.185V12.735c0,2.724,1.139,4.458,3.984,4.458,3.194,0,5.249-1.928,5.249-4.927Z" transform="translate(184.772 74.319)" fill="#e9eef1"/><path d="M7.1,6.356h3.791V9.75H7.1V20.677c0,2.285,1.11,2.56,3.791,2.4v3.394a12.322,12.322,0,0,1-2.845.313c-3.314,0-5.131-1.5-5.131-5.761V9.743H0V6.349H2.919V0H7.1Z" transform="translate(205.016 67.97)" fill="#e9eef1"/><path d="M19.42,10.651c0,6.624-3.827,10.651-8.957,10.651a7.306,7.306,0,0,1-6.2-3H4.185v9.267H0V.551H4.185V2.918h.082A7.46,7.46,0,0,1,10.462,0C15.592,0,19.42,4.019,19.42,10.651Zm-4.185,0c0-3.945-1.929-7.257-5.563-7.257-3.35,0-5.442,2.761-5.442,7.257,0,4.458,2.092,7.257,5.442,7.257C13.306,17.908,15.242,14.6,15.235,10.651Z" transform="translate(218.903 73.768)" fill="#e9eef1"/><path d="M13.418,0h4.14V20.155h-4.14v-2.6h-.082a7.617,7.617,0,0,1-6.628,3.156C2.956,20.706,0,18.541,0,13.926V0H4.185V12.735c0,2.724,1.139,4.458,3.983,4.458,3.195,0,5.25-1.928,5.25-4.927Z" transform="translate(241.171 74.319)" fill="#e9eef1"/><path d="M7.1,6.356h3.791V9.75H7.1V20.677c0,2.285,1.109,2.56,3.791,2.4v3.394a12.322,12.322,0,0,1-2.845.313c-3.314,0-5.131-1.5-5.131-5.761V9.743H0V6.349H2.919V0H7.1Z" transform="translate(261.415 67.97)" fill="#e9eef1"/></g><path d="M0,65.7,66.024,0H237.442" transform="translate(1034.994 5176.375)" fill="none" stroke="#e9eef1" stroke-width="1"/><path d="M237.442,65.7H66.024L0,0" transform="translate(1034.994 5278.672)" fill="none" stroke="#e9eef1" stroke-width="1"/><path d="M403.558,171.747H172.179L0,0" transform="translate(928.943 5269.287)" fill="none" stroke="#e9eef1" stroke-width="1"/><path d="M0,171.747,172.179,0h231.38" transform="translate(928.943 5055.307)" fill="none" stroke="#e9eef1" stroke-width="1"/><path d="M19.709,9.385A9.628,9.628,0,0,1,9.854,18.77,9.628,9.628,0,0,1,0,9.385,9.628,9.628,0,0,1,9.854,0,9.628,9.628,0,0,1,19.709,9.385Z" transform="translate(919.558 5218.607)" fill="#e9eef1"/><path d="M18.77,9.854a9.628,9.628,0,0,1-9.385,9.854A9.628,9.628,0,0,1,0,9.854,9.628,9.628,0,0,1,9.385,0,9.628,9.628,0,0,1,18.77,9.854Z" transform="translate(1025.609 5232.685)" fill="#e9eef1"/><path d="M18.77,9.385A9.385,9.385,0,1,1,9.385,0,9.385,9.385,0,0,1,18.77,9.385Z" transform="translate(1025.609 5272.103)" fill="#e9eef1"/><path d="M19.709,9.385A9.628,9.628,0,0,1,9.854,18.77,9.628,9.628,0,0,1,0,9.385,9.628,9.628,0,0,1,9.854,0,9.628,9.628,0,0,1,19.709,9.385Z" transform="translate(919.558 5259.902)" fill="#e9eef1"/><path d="M0,0H171.419l66.023,65.7" transform="translate(116.195 5176.375)" fill="none" stroke="#e9eef1" stroke-width="1"/><path d="M237.442,0,171.419,65.7H0" transform="translate(116.195 5278.672)" fill="none" stroke="#e9eef1" stroke-width="1"/><path d="M403.558,0,231.382,171.747H0" transform="translate(56.131 5269.287)" fill="none" stroke="#e9eef1" stroke-width="1"/><path d="M0,0H231.382L403.558,171.747" transform="translate(56.131 5055.307)" fill="none" stroke="#e9eef1" stroke-width="1"/><path d="M18.77,9.385A9.385,9.385,0,1,0,9.385,18.77,9.385,9.385,0,0,0,18.77,9.385Z" transform="translate(469.074 5237.377) rotate(180)" fill="#e9eef1"/><path d="M19.709,9.854a9.854,9.854,0,1,0-9.854,9.854A9.854,9.854,0,0,0,19.709,9.854Z" transform="translate(363.961 5252.394) rotate(180)" fill="#e9eef1"/><path d="M19.709,9.385A9.628,9.628,0,0,0,9.854,0,9.628,9.628,0,0,0,0,9.385,9.628,9.628,0,0,0,9.854,18.77,9.628,9.628,0,0,0,19.709,9.385Z" transform="translate(363.961 5290.873) rotate(180)" fill="#e9eef1"/><path d="M18.77,9.385A9.385,9.385,0,1,0,9.385,18.77,9.385,9.385,0,0,0,18.77,9.385Z" transform="translate(469.074 5278.672) rotate(180)" fill="#e9eef1"/><path d="M2.684,0V16.1H0V0Z" transform="translate(1148.094 5133.053)" fill="#e9eef1"/><path d="M16.217,3.874v7.951H13.834V4.55C13.834,3,13.515,2,11.891,2A2.527,2.527,0,0,0,9.3,4.82v7.005H6.917V4.55C6.917,3,6.6,2,4.955,2A2.536,2.536,0,0,0,2.365,4.82v7.005H0V.315H2.365V1.8h.047A3.985,3.985,0,0,1,5.838,0,2.969,2.969,0,0,1,8.9,1.982h.047A4.532,4.532,0,0,1,12.707,0c2.318,0,3.51,1.4,3.51,3.874Z" transform="translate(1153.077 5137.333)" fill="#e9eef1"/><path d="M11.074,6.082c0,3.784-2.177,6.082-5.105,6.082a4.172,4.172,0,0,1-3.538-1.712H2.384v5.293H0V.315H2.384V1.667h.047A4.268,4.268,0,0,1,5.969,0C8.9,0,11.074,2.3,11.074,6.082Zm-2.384,0c0-2.252-1.107-4.144-3.172-4.144C3.6,1.937,2.4,3.514,2.4,6.082c0,2.545,1.2,4.144,3.116,4.144,2.065,0,3.172-1.892,3.172-4.144Z" transform="translate(1171.266 5137.333)" fill="#e9eef1"/><path d="M5.537,1.87c-1.886,0-2.59.586-2.7,2.072H.544C.657,1.734,2.074,0,5.537,0,8.09,0,9.976.969,9.976,4.032V9.505c0,.811.178,1.239,1.107,1.149V11.78a3.6,3.6,0,0,1-1.38.248c-1.258,0-1.839-.45-2.065-1.577H7.593a4.5,4.5,0,0,1-3.81,1.712C1.445,12.163,0,10.812,0,8.875,0,6.352,1.868,5.563,4.749,5c1.783-.338,2.862-.563,2.862-1.667,0-.833-.5-1.464-2.074-1.464ZM7.611,7.456V5.721A7.886,7.886,0,0,1,5.2,6.487c-1.952.428-2.816.991-2.816,2.162,0,1.059.638,1.644,1.915,1.644,1.961,0,3.313-.969,3.313-2.838Z" transform="translate(1183.185 5137.333)" fill="#e9eef1"/><path d="M5.678,1.937c-2.318,0-3.313,1.982-3.313,4.144s.976,4.144,3.313,4.144A2.677,2.677,0,0,0,8.54,7.546h2.365a4.924,4.924,0,0,1-5.228,4.617C2.234,12.163,0,9.685,0,6.082S2.234,0,5.659,0a4.973,4.973,0,0,1,5.246,4.527H8.54a2.675,2.675,0,0,0-2.862-2.59Z" transform="translate(1194.813 5137.333)" fill="#e9eef1"/><path d="M4.054,5.563V11.8c0,1.306.629,1.464,2.159,1.374v1.937a6.8,6.8,0,0,1-1.624.18c-1.886,0-2.928-.856-2.928-3.289V5.563H0V3.626H1.661V0H4.054V3.626H6.213V5.563Z" transform="translate(1206.338 5134.021)" fill="#e9eef1"/><path d="M0,0H6.87c3.313,0,5.453,1.689,5.453,4.617A3.734,3.734,0,0,1,9.329,8.627v.045c3.716.7,2.365,7.005,3.219,7.275V16.1H9.732c-.741-.676.77-6.217-3.106-6.217H2.684V16.1H0ZM2.684,7.591H6.307c1.652,0,3.36-.315,3.36-2.658,0-2.32-1.708-2.658-3.36-2.658H2.684Z" transform="translate(1191.218 5399.589)" fill="#e9eef1"/><path d="M0,8.379C0,3.536,3.041,0,7.9,0c4.843,0,7.9,3.536,7.9,8.379s-3.06,8.4-7.9,8.4C3.041,16.781,0,13.222,0,8.379Zm13.13,0C13.13,5.135,11.6,2.3,7.9,2.3S2.656,5.135,2.656,8.379c0,3.266,1.549,6.1,5.246,6.1S13.13,11.645,13.13,8.379Z" transform="translate(1204.911 5399.251)" fill="#e9eef1"/><path d="M2.684,0V16.1H0V0Z" transform="translate(1222.668 5399.589)" fill="#e9eef1"/><path d="M9.648,7.41v.045A3.672,3.672,0,0,1,12.773,11.4c0,3.108-2.14,4.708-5.471,4.708H0V0H6.917c3.313,0,5.228,1.464,5.228,4.054a3.308,3.308,0,0,1-2.5,3.356ZM6.832,6.667c1.915,0,2.628-.766,2.628-2.185S8.587,2.275,6.983,2.275h-4.3V6.667ZM2.684,13.83H7.1c2.3,0,3-1.081,3-2.59A2.408,2.408,0,0,0,7.4,8.672H2.684Z" transform="translate(1128.338 5303.861)" fill="#e9eef1"/><path d="M8.653,8.311h2.365a5.05,5.05,0,0,1-5.246,3.852C2.187,12.163,0,9.685,0,6.082,0,2.343,2.187,0,5.659,0,9.376,0,11.2,2.59,11.2,6.69H2.365A3.294,3.294,0,0,0,5.7,10.226,2.858,2.858,0,0,0,8.653,8.311ZM2.365,4.933H8.831A2.972,2.972,0,0,0,5.659,1.87,3.074,3.074,0,0,0,2.365,4.933Z" transform="translate(1141.975 5308.141)" fill="#e9eef1"/><path d="M10.023,8.154V16.1H7.63V8.829c0-1.554-.648-2.545-2.29-2.545A2.752,2.752,0,0,0,2.365,9.1V16.1H0V0H2.365V6.082h.047a4.306,4.306,0,0,1,3.735-1.8A3.572,3.572,0,0,1,10.023,8.154Z" transform="translate(1154.57 5303.861)" fill="#e9eef1"/><path d="M5.537,1.87c-1.9,0-2.59.586-2.7,2.072H.535C.648,1.734,2.065,0,5.537,0,8.081,0,9.976.969,9.976,4.032V9.505c0,.811.178,1.239,1.1,1.149V11.78a3.524,3.524,0,0,1-1.37.248c-1.258,0-1.849-.45-2.074-1.577H7.583a4.478,4.478,0,0,1-3.8,1.712C1.436,12.163,0,10.812,0,8.875,0,6.352,1.868,5.563,4.749,5c1.783-.338,2.862-.563,2.862-1.667,0-.833-.5-1.464-2.074-1.464ZM7.611,7.456V5.721A7.885,7.885,0,0,1,5.2,6.487c-1.961.428-2.816.991-2.816,2.162,0,1.059.629,1.644,1.915,1.644,1.961,0,3.313-.969,3.313-2.838Z" transform="translate(1165.879 5308.141)" fill="#e9eef1"/><path d="M2.506,0l2.9,9.01h.028L8.334,0H10.84L6.757,11.51H4.082L0,0Z" transform="translate(1176.766 5308.456)" fill="#e9eef1"/><path d="M0,1.239A1.252,1.252,0,0,1,1.323,0,1.245,1.245,0,0,1,2.675,1.239,1.263,1.263,0,0,1,1.323,2.5,1.27,1.27,0,0,1,0,1.239Zm2.525,3.2v11.51H.16V4.437Z" transform="translate(1188.516 5304.019)" fill="#e9eef1"/><path d="M5.791,12.163C2.187,12.163,0,9.663,0,6.082S2.187,0,5.791,0s5.791,2.5,5.791,6.082S9.394,12.163,5.791,12.163Zm0-1.937c2.252,0,3.426-1.779,3.426-4.144,0-2.388-1.173-4.144-3.426-4.144S2.365,3.694,2.365,6.082C2.365,8.447,3.538,10.226,5.791,10.226Z" transform="translate(1192.607 5308.141)" fill="#e9eef1"/><path d="M10.023,0V11.51H7.658V10.023H7.611a4.337,4.337,0,0,1-3.782,1.8A3.559,3.559,0,0,1,0,7.951V0H2.393V7.275c0,1.554.648,2.545,2.271,2.545A2.724,2.724,0,0,0,7.658,7.005V0Z" transform="translate(1205.503 5308.456)" fill="#e9eef1"/><path d="M6.513.068V2.3H6.466a3.416,3.416,0,0,0-4.1,3.6V11.78H0V.27H2.365V2.433h.047C3.022.991,3.97,0,5.481,0A7.239,7.239,0,0,1,6.513.068Z" transform="translate(1217.553 5308.186)" fill="#e9eef1"/><path d="M2.844,0l4.1,13.177h.019L11.065,0H13.9L8.409,16.1H5.5L0,0Z" transform="translate(1178.718 5012.924)" fill="#e9eef1"/><path d="M5.547,1.87c-1.9,0-2.59.586-2.7,2.072H.544C.657,1.734,2.074,0,5.547,0,8.09,0,9.986.969,9.986,4.032V9.505c0,.811.178,1.239,1.1,1.149V11.78a3.524,3.524,0,0,1-1.37.248c-1.267,0-1.849-.45-2.074-1.577H7.593a4.491,4.491,0,0,1-3.8,1.712C1.445,12.163,0,10.812,0,8.875,0,6.352,1.877,5.563,4.758,5c1.774-.338,2.862-.563,2.862-1.667,0-.833-.5-1.464-2.074-1.464ZM7.621,7.456V5.721a7.979,7.979,0,0,1-2.412.766c-1.961.428-2.816.991-2.816,2.162,0,1.059.629,1.644,1.915,1.644,1.961,0,3.313-.969,3.313-2.838Z" transform="translate(1191.566 5017.204)" fill="#e9eef1"/><path d="M2.393,0V16.1H0V0Z" transform="translate(1203.851 5012.924)" fill="#e9eef1"/><path d="M10.023,0V11.51H7.658V10.023H7.611a4.349,4.349,0,0,1-3.782,1.8A3.559,3.559,0,0,1,0,7.951V0H2.384V7.275c0,1.554.657,2.545,2.281,2.545A2.724,2.724,0,0,0,7.658,7.005V0Z" transform="translate(1208.224 5017.519)" fill="#e9eef1"/><path d="M8.653,8.311h2.365a5.05,5.05,0,0,1-5.246,3.852C2.187,12.163,0,9.685,0,6.082,0,2.343,2.187,0,5.659,0,9.376,0,11.2,2.59,11.2,6.69H2.365A3.294,3.294,0,0,0,5.7,10.226,2.858,2.858,0,0,0,8.653,8.311ZM2.365,4.933H8.831A2.972,2.972,0,0,0,5.659,1.87,3.074,3.074,0,0,0,2.365,4.933Z" transform="translate(1219.665 5017.204)" fill="#e9eef1"/><path d="M0,0H6.87c3.311,0,5.451,1.689,5.451,4.617a3.737,3.737,0,0,1-3,4.009v.045c3.716.7,2.365,7.005,3.221,7.275V16.1H9.73c-.743-.676.766-6.217-3.108-6.217H2.68V16.1H0ZM2.68,7.591H6.307c1.644,0,3.356-.315,3.356-2.658,0-2.32-1.712-2.658-3.356-2.658H2.68Z" transform="translate(115.693 5133.991)" fill="#e9eef1"/><path d="M8.649,8.311h2.365a5.045,5.045,0,0,1-5.248,3.852C2.185,12.163,0,9.685,0,6.082,0,2.343,2.185,0,5.654,0c3.716,0,5.541,2.59,5.541,6.69H2.365A3.294,3.294,0,0,0,5.7,10.226,2.848,2.848,0,0,0,8.649,8.311ZM2.365,4.933H8.829A2.975,2.975,0,0,0,5.654,1.87,3.07,3.07,0,0,0,2.365,4.933Z" transform="translate(129.02 5138.271)" fill="#e9eef1"/><path d="M11.082.315V15.744H8.694V10.451H8.649a4.166,4.166,0,0,1-3.536,1.712C2.185,12.163,0,9.866,0,6.082S2.185,0,5.113,0A4.261,4.261,0,0,1,8.649,1.667h.045V.315ZM8.672,6.082c0-2.568-1.194-4.144-3.108-4.144-2.072,0-3.176,1.892-3.176,4.144s1.1,4.144,3.176,4.144c1.915,0,3.108-1.6,3.108-4.144Z" transform="translate(141.07 5138.271)" fill="#e9eef1"/><path d="M10.023,0V11.51H7.658V10.023H7.613a4.348,4.348,0,0,1-3.784,1.8A3.559,3.559,0,0,1,0,7.951V0H2.388V7.275c0,1.554.653,2.545,2.275,2.545a2.723,2.723,0,0,0,3-2.816V0Z" transform="translate(154.097 5138.586)" fill="#e9eef1"/><path d="M0,1.239A1.253,1.253,0,0,1,1.329,0,1.248,1.248,0,0,1,2.68,1.239,1.266,1.266,0,0,1,1.329,2.5,1.272,1.272,0,0,1,0,1.239Zm2.523,3.2v11.51H.158V4.437Z" transform="translate(166.147 5134.149)" fill="#e9eef1"/><path d="M6.509.068V2.3H6.464a3.414,3.414,0,0,0-4.1,3.6V11.78H0V.27H2.365V2.433H2.41C3.018.991,3.964,0,5.473,0A7.275,7.275,0,0,1,6.509.068Z" transform="translate(170.849 5138.316)" fill="#e9eef1"/><path d="M8.649,8.311h2.365a5.045,5.045,0,0,1-5.248,3.852C2.185,12.163,0,9.685,0,6.082,0,2.343,2.185,0,5.654,0c3.716,0,5.541,2.59,5.541,6.69H2.365A3.294,3.294,0,0,0,5.7,10.226,2.848,2.848,0,0,0,8.649,8.311ZM2.365,4.933H8.829A2.975,2.975,0,0,0,5.654,1.87,3.07,3.07,0,0,0,2.365,4.933Z" transform="translate(177.67 5138.271)" fill="#e9eef1"/><path d="M16.217,3.874v7.951H13.83V4.55C13.83,3,13.515,2,11.893,2A2.525,2.525,0,0,0,9.3,4.82v7.005H6.915V4.55C6.915,3,6.6,2,4.955,2A2.536,2.536,0,0,0,2.365,4.82v7.005H0V.315H2.365V1.8H2.41A3.981,3.981,0,0,1,5.834,0,2.971,2.971,0,0,1,8.9,1.982h.045A4.536,4.536,0,0,1,12.7,0c2.32,0,3.514,1.4,3.514,3.874Z" transform="translate(190.261 5138.271)" fill="#e9eef1"/><path d="M8.649,8.311h2.365a5.045,5.045,0,0,1-5.248,3.852C2.185,12.163,0,9.685,0,6.082,0,2.343,2.185,0,5.654,0c3.716,0,5.541,2.59,5.541,6.69H2.365A3.294,3.294,0,0,0,5.7,10.226,2.848,2.848,0,0,0,8.649,8.311ZM2.365,4.933H8.829A2.975,2.975,0,0,0,5.654,1.87,3.07,3.07,0,0,0,2.365,4.933Z" transform="translate(207.839 5138.271)" fill="#e9eef1"/><path d="M10.023,3.874v7.951H7.636V4.55C7.636,3,6.982,2,5.361,2a2.723,2.723,0,0,0-3,2.816v7.005H0V.315H2.365V1.8H2.41A4.348,4.348,0,0,1,6.194,0a3.559,3.559,0,0,1,3.829,3.874Z" transform="translate(220.43 5138.271)" fill="#e9eef1"/><path d="M4.054,5.563V11.8c0,1.306.631,1.464,2.162,1.374v1.937a6.856,6.856,0,0,1-1.622.18c-1.892,0-2.928-.856-2.928-3.289V5.563H0V3.626H1.667V0H4.054V3.626H6.217V5.563Z" transform="translate(231.45 5134.96)" fill="#e9eef1"/><path d="M10.113,8.582c0,2.207-1.892,3.581-4.685,3.581C1.712,12.163.113,10.429,0,8H2.3c.113,1.239.653,2.3,3.086,2.3,1.644,0,2.343-.811,2.343-1.532,0-1.442-1.374-1.554-3.063-1.96C2.838,6.374.36,6.014.36,3.4.36,1.509,2.027,0,4.91,0,8.041,0,9.528,1.689,9.685,3.694h-2.3C7.23,2.793,6.78,1.87,4.933,1.87c-1.419,0-2.185.541-2.185,1.351,0,1.171,1.284,1.261,2.951,1.644,2.117.5,4.415.969,4.415,3.717Z" transform="translate(238.505 5138.271)" fill="#e9eef1"/><path d="M13.087,12.073c0,2.568-1.937,4.708-5.991,4.708-3.942,0-6.937-2.05-7.1-5.7H2.68c.135,2.05,1.532,3.4,4.415,3.4,2.388,0,3.311-1.059,3.311-2.3,0-1.915-1.374-2.275-4.55-3.063C3.334,8.492.608,7.523.608,4.46.608,1.6,2.816,0,6.329,0c3.536,0,6.1,1.847,6.329,5.158H9.978C9.73,3.289,8.559,2.3,6.329,2.3c-1.915,0-3.063.721-3.063,1.915,0,1.757,1.509,2.072,3.762,2.635,3.446.878,6.059,1.622,6.059,5.226Z" transform="translate(130.724 5303.523)" fill="#e9eef1"/><path d="M4.054,5.563V11.8c0,1.306.631,1.464,2.163,1.374v1.937a6.858,6.858,0,0,1-1.622.18c-1.892,0-2.928-.856-2.928-3.289V5.563H0V3.626H1.667V0H4.054V3.626H6.217V5.563Z" transform="translate(144.641 5304.83)" fill="#e9eef1"/><path d="M5.789,12.163C2.185,12.163,0,9.663,0,6.082S2.185,0,5.789,0s5.789,2.5,5.789,6.082S9.393,12.163,5.789,12.163Zm0-1.937c2.252,0,3.424-1.779,3.424-4.144,0-2.388-1.171-4.144-3.424-4.144S2.365,3.694,2.365,6.082C2.365,8.447,3.536,10.226,5.789,10.226Z" transform="translate(151.633 5308.141)" fill="#e9eef1"/><path d="M6.509.068V2.3H6.464a3.414,3.414,0,0,0-4.1,3.6V11.78H0V.27H2.365V2.433H2.41C3.018.991,3.964,0,5.473,0A7.275,7.275,0,0,1,6.509.068Z" transform="translate(164.62 5308.186)" fill="#e9eef1"/><path d="M6.69,12.231c-.653,1.779-1.4,3.2-3.6,3.2A6.816,6.816,0,0,1,1.4,15.2V13.4h.2a2.242,2.242,0,0,0,2.252-.563,2.438,2.438,0,0,0,.315-2.5L0,0H2.545L5.766,8.807h.045L8.762,0h2.523Z" transform="translate(171.364 5308.456)" fill="#e9eef1"/><path d="M11.082,6.082c0,3.784-2.185,6.082-5.113,6.082a4.166,4.166,0,0,1-3.536-1.712H2.388v5.293H0V.315H2.388V1.667h.045A4.261,4.261,0,0,1,5.969,0C8.9,0,11.082,2.3,11.082,6.082Zm-2.388,0c0-2.252-1.1-4.144-3.176-4.144C3.6,1.937,2.41,3.514,2.41,6.082c0,2.545,1.194,4.144,3.108,4.144C7.591,10.226,8.694,8.334,8.694,6.082Z" transform="translate(183.571 5308.141)" fill="#e9eef1"/><path d="M5.789,12.163C2.185,12.163,0,9.663,0,6.082S2.185,0,5.789,0s5.789,2.5,5.789,6.082S9.393,12.163,5.789,12.163Zm0-1.937c2.252,0,3.424-1.779,3.424-4.144,0-2.388-1.171-4.144-3.424-4.144S2.365,3.694,2.365,6.082C2.365,8.447,3.536,10.226,5.789,10.226Z" transform="translate(195.539 5308.141)" fill="#e9eef1"/><path d="M0,1.239A1.253,1.253,0,0,1,1.329,0,1.248,1.248,0,0,1,2.68,1.239,1.266,1.266,0,0,1,1.329,2.5,1.272,1.272,0,0,1,0,1.239Zm2.523,3.2v11.51H.158V4.437Z" transform="translate(208.526 5304.019)" fill="#e9eef1"/><path d="M10.023,3.874v7.951H7.636V4.55C7.636,3,6.982,2,5.361,2a2.723,2.723,0,0,0-3,2.816v7.005H0V.315H2.365V1.8H2.41A4.348,4.348,0,0,1,6.194,0a3.559,3.559,0,0,1,3.829,3.874Z" transform="translate(213.228 5308.141)" fill="#e9eef1"/><path d="M4.054,5.563V11.8c0,1.306.631,1.464,2.162,1.374v1.937a6.856,6.856,0,0,1-1.622.18c-1.892,0-2.928-.856-2.928-3.289V5.563H0V3.626H1.667V0H4.054V3.626H6.217V5.563Z" transform="translate(224.248 5304.83)" fill="#e9eef1"/><path d="M10.113,8.582c0,2.207-1.892,3.581-4.685,3.581C1.712,12.163.113,10.429,0,8H2.3c.113,1.239.653,2.3,3.086,2.3,1.644,0,2.343-.811,2.343-1.532,0-1.442-1.374-1.554-3.063-1.96C2.838,6.374.36,6.014.36,3.4.36,1.509,2.027,0,4.91,0,8.041,0,9.528,1.689,9.685,3.694h-2.3C7.23,2.793,6.78,1.87,4.933,1.87c-1.419,0-2.185.541-2.185,1.351,0,1.171,1.284,1.261,2.951,1.644,2.117.5,4.415.969,4.415,3.716Z" transform="translate(231.303 5308.141)" fill="#e9eef1"/><path d="M2.68,0V16.1H0V0Z" transform="translate(97.905 5398.65)" fill="#e9eef1"/><path d="M10.023,3.874v7.951H7.636V4.55C7.636,3,6.982,2,5.361,2a2.723,2.723,0,0,0-3,2.816v7.005H0V.315H2.365V1.8H2.41A4.348,4.348,0,0,1,6.194,0a3.559,3.559,0,0,1,3.829,3.874Z" transform="translate(102.886 5402.93)" fill="#e9eef1"/><path d="M4.054,5.563V11.8c0,1.306.631,1.464,2.162,1.374v1.937a6.856,6.856,0,0,1-1.622.18c-1.892,0-2.928-.856-2.928-3.289V5.563H0V3.626H1.667V0H4.054V3.626H6.217V5.563Z" transform="translate(113.906 5399.619)" fill="#e9eef1"/><path d="M8.649,8.311h2.365a5.045,5.045,0,0,1-5.248,3.852C2.185,12.163,0,9.685,0,6.082,0,2.343,2.185,0,5.654,0c3.716,0,5.541,2.59,5.541,6.69H2.365A3.294,3.294,0,0,0,5.7,10.226,2.848,2.848,0,0,0,8.649,8.311ZM2.365,4.933H8.829A2.975,2.975,0,0,0,5.654,1.87,3.07,3.07,0,0,0,2.365,4.933Z" transform="translate(120.899 5402.93)" fill="#e9eef1"/><path d="M6.509.068V2.3H6.464a3.414,3.414,0,0,0-4.1,3.6V11.78H0V.27H2.365V2.433H2.41C3.018.991,3.964,0,5.473,0A7.275,7.275,0,0,1,6.509.068Z" transform="translate(133.489 5402.975)" fill="#e9eef1"/><path d="M4.032,3.491V4.753H6.149V6.69H4.032v9.573H1.644V6.69H0V4.753H1.644V3.289C1.644.856,2.68,0,4.572,0A8.3,8.3,0,0,1,6.149.158V2.095c-1.532-.068-2.117.09-2.117,1.4Z" transform="translate(140.638 5398.493)" fill="#e9eef1"/><path d="M5.541,1.87c-1.892,0-2.59.586-2.7,2.072H.541C.653,1.734,2.072,0,5.541,0,8.086,0,9.978.969,9.978,4.032V9.505c0,.811.18,1.239,1.1,1.149V11.78a3.559,3.559,0,0,1-1.374.248c-1.261,0-1.847-.45-2.072-1.577H7.591a4.492,4.492,0,0,1-3.807,1.712C1.442,12.163,0,10.812,0,8.875,0,6.352,1.87,5.563,4.753,5c1.779-.338,2.861-.563,2.861-1.667,0-.833-.5-1.464-2.072-1.464ZM7.613,7.456V5.721a7.888,7.888,0,0,1-2.41.766c-1.96.428-2.816.991-2.816,2.162,0,1.059.631,1.644,1.915,1.644,1.96,0,3.311-.969,3.311-2.838Z" transform="translate(147.145 5402.93)" fill="#e9eef1"/><path d="M5.676,1.937c-2.32,0-3.311,1.982-3.311,4.144s.969,4.144,3.311,4.144a2.673,2.673,0,0,0,2.861-2.68H10.9a4.922,4.922,0,0,1-5.226,4.617C2.23,12.163,0,9.685,0,6.082S2.23,0,5.654,0A4.975,4.975,0,0,1,10.9,4.527H8.537a2.671,2.671,0,0,0-2.861-2.59Z" transform="translate(158.777 5402.93)" fill="#e9eef1"/><path d="M8.649,8.311h2.365a5.045,5.045,0,0,1-5.248,3.852C2.185,12.163,0,9.685,0,6.082,0,2.343,2.185,0,5.654,0c3.716,0,5.541,2.59,5.541,6.69H2.365A3.294,3.294,0,0,0,5.7,10.226,2.848,2.848,0,0,0,8.649,8.311ZM2.365,4.933H8.829A2.975,2.975,0,0,0,5.654,1.87,3.07,3.07,0,0,0,2.365,4.933Z" transform="translate(170.408 5402.93)" fill="#e9eef1"/><path d="M10.113,8.582c0,2.207-1.892,3.581-4.685,3.581C1.712,12.163.113,10.429,0,8H2.3c.113,1.239.653,2.3,3.086,2.3,1.644,0,2.343-.811,2.343-1.532,0-1.442-1.374-1.554-3.063-1.96C2.838,6.374.36,6.014.36,3.4.36,1.509,2.027,0,4.91,0,8.041,0,9.528,1.689,9.685,3.694h-2.3C7.23,2.793,6.78,1.87,4.933,1.87c-1.419,0-2.185.541-2.185,1.351,0,1.171,1.284,1.261,2.951,1.644,2.117.5,4.415.969,4.415,3.716Z" transform="translate(182.278 5402.93)" fill="#e9eef1"/><path d="M9.64,6.96v2.3H2.68V16.1H0V0H11.262V2.275H2.68V6.96Z" transform="translate(69.706 5012.924)" fill="#e9eef1"/><path d="M10.023,0V11.51H7.658V10.023H7.613a4.348,4.348,0,0,1-3.784,1.8A3.559,3.559,0,0,1,0,7.951V0H2.388V7.275c0,1.554.653,2.545,2.275,2.545a2.723,2.723,0,0,0,3-2.816V0Z" transform="translate(81.615 5017.519)" fill="#e9eef1"/><path d="M10.023,3.874v7.951H7.636V4.55C7.636,3,6.982,2,5.361,2a2.723,2.723,0,0,0-3,2.816v7.005H0V.315H2.365V1.8H2.41A4.348,4.348,0,0,1,6.194,0a3.559,3.559,0,0,1,3.829,3.874Z" transform="translate(93.666 5017.204)" fill="#e9eef1"/><path d="M5.676,1.937c-2.32,0-3.311,1.982-3.311,4.144s.969,4.144,3.311,4.144a2.673,2.673,0,0,0,2.861-2.68H10.9a4.922,4.922,0,0,1-5.226,4.617C2.23,12.163,0,9.685,0,6.082S2.23,0,5.654,0A4.975,4.975,0,0,1,10.9,4.527H8.537a2.671,2.671,0,0,0-2.861-2.59Z" transform="translate(105.018 5017.204)" fill="#e9eef1"/><path d="M4.054,5.563V11.8c0,1.306.631,1.464,2.162,1.374v1.937a6.856,6.856,0,0,1-1.622.18c-1.892,0-2.928-.856-2.928-3.289V5.563H0V3.626H1.667V0H4.054V3.626H6.217V5.563Z" transform="translate(116.536 5013.893)" fill="#e9eef1"/><path d="M0,1.239A1.253,1.253,0,0,1,1.329,0,1.248,1.248,0,0,1,2.68,1.239,1.266,1.266,0,0,1,1.329,2.5,1.272,1.272,0,0,1,0,1.239Zm2.523,3.2v11.51H.158V4.437Z" transform="translate(124.247 5013.082)" fill="#e9eef1"/><path d="M5.789,12.163C2.185,12.163,0,9.663,0,6.082S2.185,0,5.789,0s5.789,2.5,5.789,6.082S9.393,12.163,5.789,12.163Zm0-1.937c2.252,0,3.424-1.779,3.424-4.144,0-2.388-1.171-4.144-3.424-4.144S2.365,3.694,2.365,6.082C2.365,8.447,3.536,10.226,5.789,10.226Z" transform="translate(128.341 5017.204)" fill="#e9eef1"/><path d="M10.024,3.874v7.951H7.636V4.55C7.636,3,6.982,2,5.361,2a2.723,2.723,0,0,0-3,2.816v7.005H0V.315H2.365V1.8H2.41A4.348,4.348,0,0,1,6.194,0a3.559,3.559,0,0,1,3.829,3.874Z" transform="translate(141.327 5017.204)" fill="#e9eef1"/><path d="M5.541,1.87c-1.892,0-2.59.586-2.7,2.072H.541C.653,1.734,2.072,0,5.541,0,8.086,0,9.978.969,9.978,4.032V9.505c0,.811.18,1.239,1.1,1.149V11.78a3.559,3.559,0,0,1-1.374.248c-1.261,0-1.847-.45-2.072-1.577H7.591a4.492,4.492,0,0,1-3.807,1.712C1.442,12.163,0,10.812,0,8.875,0,6.352,1.87,5.563,4.753,5c1.779-.338,2.861-.563,2.861-1.667,0-.833-.5-1.464-2.072-1.464ZM7.613,7.456V5.721a7.888,7.888,0,0,1-2.41.766c-1.96.428-2.816.991-2.816,2.162,0,1.059.631,1.644,1.915,1.644,1.96,0,3.311-.969,3.311-2.838Z" transform="translate(152.635 5017.204)" fill="#e9eef1"/><path d="M2.388,0V16.1H0V0Z" transform="translate(164.92 5012.924)" fill="#e9eef1"/><path d="M0,1.239A1.253,1.253,0,0,1,1.329,0,1.248,1.248,0,0,1,2.68,1.239,1.266,1.266,0,0,1,1.329,2.5,1.272,1.272,0,0,1,0,1.239Zm2.523,3.2v11.51H.158V4.437Z" transform="translate(169.203 5013.082)" fill="#e9eef1"/><path d="M4.054,5.563V11.8c0,1.306.631,1.464,2.162,1.374v1.937a6.856,6.856,0,0,1-1.622.18c-1.892,0-2.928-.856-2.928-3.289V5.563H0V3.626H1.667V0H4.054V3.626H6.217V5.563Z" transform="translate(173.184 5013.893)" fill="#e9eef1"/><path d="M0,1.239A1.253,1.253,0,0,1,1.329,0,1.248,1.248,0,0,1,2.68,1.239,1.266,1.266,0,0,1,1.329,2.5,1.272,1.272,0,0,1,0,1.239Zm2.523,3.2v11.51H.158V4.437Z" transform="translate(180.894 5013.082)" fill="#e9eef1"/><path d="M8.649,8.311h2.365a5.045,5.045,0,0,1-5.248,3.852C2.185,12.163,0,9.685,0,6.082,0,2.343,2.185,0,5.654,0c3.716,0,5.541,2.59,5.541,6.69H2.365A3.294,3.294,0,0,0,5.7,10.226,2.848,2.848,0,0,0,8.649,8.311ZM2.365,4.933H8.829A2.975,2.975,0,0,0,5.654,1.87,3.07,3.07,0,0,0,2.365,4.933Z" transform="translate(184.988 5017.204)" fill="#e9eef1"/><path d="M10.113,8.582c0,2.207-1.892,3.581-4.685,3.581C1.712,12.163.113,10.429,0,8H2.3c.113,1.239.653,2.3,3.086,2.3,1.644,0,2.343-.811,2.343-1.532,0-1.442-1.374-1.554-3.063-1.96C2.838,6.374.36,6.014.36,3.4.36,1.509,2.027,0,4.91,0,8.041,0,9.528,1.689,9.685,3.694h-2.3C7.23,2.793,6.78,1.87,4.933,1.87c-1.419,0-2.185.541-2.185,1.351,0,1.171,1.284,1.261,2.951,1.644,2.117.5,4.415.969,4.415,3.716Z" transform="translate(196.858 5017.204)" fill="#e9eef1"/></g></svg>