<svg xmlns="http://www.w3.org/2000/svg" width="23.015" height="23.014" viewBox="0 0 23.015 23.014">
  <g id="Group_1094" data-name="Group 1094" transform="translate(-108.499 -1842.408)">
    <path id="Vector" d="M7,2.807C5.59,7,0,7,0,7S0,1.41,4.193,0" transform="translate(109 1857.922)" fill="none" stroke="#e9eef1" stroke-linecap="round" stroke-linejoin="round" stroke-width="1"/>
    <path id="Vector-2" data-name="Vector" d="M13.162,8.105,5.267,16,0,10.733,7.895,2.838A8.441,8.441,0,0,1,15.15.071a.907.907,0,0,1,.779.779A8.441,8.441,0,0,1,13.162,8.105Z" transform="translate(115 1842.922)" fill="none" stroke="#e9eef1" stroke-linecap="round" stroke-linejoin="round" stroke-width="1"/>
    <path id="Vector-3" data-name="Vector" d="M7,0V7.387a.883.883,0,0,1-.3.64l-3.995,3.7a1.013,1.013,0,0,1-.459.24,1.066,1.066,0,0,1-.527-.012,1,1,0,0,1-.446-.261.891.891,0,0,1-.237-.436L0,6.472" transform="translate(120 1852.922)" fill="none" stroke="#e9eef1" stroke-linecap="round" stroke-linejoin="round" stroke-width="1"/>
    <path id="Vector-4" data-name="Vector" d="M5.528,7,.736,5.961A.891.891,0,0,1,.3,5.724a1,1,0,0,1-.261-.446,1.067,1.067,0,0,1-.012-.527,1.013,1.013,0,0,1,.24-.459L3.973.3a.883.883,0,0,1,.64-.3H12" transform="translate(109 1846.922)" fill="none" stroke="#e9eef1" stroke-linecap="round" stroke-linejoin="round" stroke-width="1"/>
  </g>
</svg>
